<svg width="21" height="16" viewBox="0 0 21 16" fill="none" xmlns="http://www.w3.org/2000/svg">
<path d="M10 2H21V4.5H10V2Z" fill="#F23F32"/>
<path d="M10 12H21V14.5H10V12Z" fill="#F23F32"/>
<path d="M7 1.27312L5.72688 0L3.5 2.22688L1.27312 0L0 1.27312L2.22688 3.5L0 5.72688L1.27312 7L3.5 4.77312L5.72688 7L7 5.72688L4.77312 3.5L7 1.27312Z" fill="#F23F32"/>
<path d="M7 10.2731L5.72688 9L3.5 11.2269L1.27312 9L0 10.2731L2.22688 12.5L0 14.7269L1.27312 16L3.5 13.7731L5.72688 16L7 14.7269L4.77312 12.5L7 10.2731Z" fill="#F23F32"/>
</svg>
