<svg width="24" height="24" viewBox="0 0 24 24" fill="none" xmlns="http://www.w3.org/2000/svg">
<path d="M12 0C9.62663 0 7.30655 0.703787 5.33316 2.02236C3.35977 3.34094 1.8217 5.21508 0.913451 7.4078C0.00519937 9.60051 -0.232441 12.0133 0.230582 14.3411C0.693604 16.6689 1.83649 18.807 3.51472 20.4853C5.19295 22.1635 7.33115 23.3064 9.65892 23.7694C11.9867 24.2324 14.3995 23.9948 16.5922 23.0865C18.7849 22.1783 20.6591 20.6402 21.9776 18.6668C23.2962 16.6934 24 14.3734 24 12C24 8.8174 22.7357 5.76515 20.4853 3.51472C18.2348 1.26428 15.1826 0 12 0ZM1.50001 12C1.50072 9.47691 2.41448 7.03932 4.0725 5.1375L18.8625 19.9275C17.3414 21.241 15.4753 22.0904 13.4859 22.3748C11.4964 22.6592 9.46706 22.3666 7.6389 21.5319C5.81073 20.6972 4.26052 19.3554 3.17235 17.6657C2.08417 15.9761 1.50375 14.0097 1.50001 12ZM19.9275 18.8625L5.1375 4.0725C7.15002 2.39095 9.71896 1.5234 12.3389 1.64053C14.9589 1.75766 17.4401 2.851 19.2946 4.70543C21.149 6.55986 22.2423 9.04114 22.3595 11.6611C22.4766 14.281 21.6091 16.85 19.9275 18.8625Z" fill="#F23F32"/>
</svg>
