<svg width="24" height="24" viewBox="0 0 24 24" fill="none" xmlns="http://www.w3.org/2000/svg">
<path d="M12.0072 22.7403C11.3772 22.7403 10.7572 22.5303 10.2672 22.1103L8.68719 20.7603C8.52719 20.6203 8.12719 20.4803 7.91719 20.4803H6.16719C5.45641 20.4803 4.77474 20.198 4.27214 19.6954C3.76954 19.1928 3.48719 18.5111 3.48719 17.8003V16.0903C3.48719 15.8803 3.34719 15.4803 3.21719 15.3303L1.85719 13.7303C1.03719 12.7603 1.03719 11.2403 1.85719 10.2603L3.21719 8.66031C3.34719 8.51031 3.48719 8.11031 3.48719 7.90031V6.20031C3.48719 4.72031 4.68719 3.52031 6.16719 3.52031H7.89719C8.10719 3.52031 8.49719 3.37031 8.66719 3.23031L10.2472 1.88031C11.2272 1.05031 12.7572 1.05031 13.7372 1.88031L15.3172 3.23031C15.4772 3.37031 15.8872 3.51031 16.0972 3.51031H17.7972C19.2772 3.51031 20.4772 4.71031 20.4772 6.19031V7.89031C20.4772 8.10031 20.6272 8.49031 20.7672 8.66031L22.1172 10.2403C22.9572 11.2303 22.9472 12.7603 22.1172 13.7303L20.7672 15.3103C20.6272 15.4803 20.4872 15.8703 20.4872 16.0803V17.7803C20.4872 19.2603 19.2872 20.4603 17.8072 20.4603H16.1072C15.8972 20.4603 15.5072 20.6103 15.3272 20.7503L13.7472 22.1003C13.2572 22.5303 12.6272 22.7403 12.0072 22.7403ZM6.16719 5.02031C5.51719 5.02031 4.98719 5.55031 4.98719 6.20031V7.90031C4.98719 8.47031 4.72719 9.19031 4.35719 9.63031L2.99719 11.2303C2.65719 11.6403 2.65719 12.3603 2.99719 12.7603L4.34719 14.3503C4.70719 14.7603 4.97719 15.5103 4.97719 16.0803V17.7903C4.97719 18.4403 5.50719 18.9703 6.15719 18.9703H7.89719C8.45719 18.9703 9.19719 19.2403 9.63719 19.6103L11.2272 20.9703C11.6372 21.3203 12.3572 21.3203 12.7672 20.9703L14.3472 19.6203C14.7972 19.2403 15.5272 18.9803 16.0872 18.9803H17.7872C18.4372 18.9803 18.9672 18.4503 18.9672 17.8003V16.1003C18.9672 15.5403 19.2372 14.8103 19.6072 14.3603L20.9672 12.7703C21.3172 12.3603 21.3172 11.6403 20.9672 11.2303L19.6172 9.65031C19.2372 9.20031 18.9772 8.47031 18.9772 7.91031V6.20031C18.9772 5.55031 18.4472 5.02031 17.7972 5.02031H16.0972C15.5272 5.02031 14.7872 4.75031 14.3472 4.38031L12.7572 3.02031C12.3472 2.67031 11.6372 2.67031 11.2172 3.02031L9.64719 4.38031C9.19719 4.75031 8.46719 5.02031 7.89719 5.02031H6.16719Z" fill="#428DFF"/>
<path d="M12 16.8709C11.45 16.8709 11 16.4209 11 15.8709C11 15.3209 11.44 14.8709 12 14.8709C12.55 14.8709 13 15.3209 13 15.8709C13 16.4209 12.56 16.8709 12 16.8709ZM12 13.7189C11.59 13.7189 11.25 13.3789 11.25 12.9689V8.12891C11.25 7.71891 11.59 7.37891 12 7.37891C12.41 7.37891 12.75 7.71891 12.75 8.12891V12.9589C12.75 13.3789 12.42 13.7189 12 13.7189Z" fill="#428DFF"/>
</svg>
