<svg width="24" height="24" viewBox="0 0 24 24" fill="none" xmlns="http://www.w3.org/2000/svg">
<path fill-rule="evenodd" clip-rule="evenodd" d="M6.75 7.5C6.75 5.15279 8.65279 3.25 11 3.25C13.3472 3.25 15.25 5.15279 15.25 7.5C15.25 9.84721 13.3472 11.75 11 11.75C8.65279 11.75 6.75 9.84721 6.75 7.5ZM11 4.75C9.48122 4.75 8.25 5.98122 8.25 7.5C8.25 9.01878 9.48122 10.25 11 10.25C12.5188 10.25 13.75 9.01878 13.75 7.5C13.75 5.98122 12.5188 4.75 11 4.75Z" fill="#F23F32"/>
<path fill-rule="evenodd" clip-rule="evenodd" d="M3.25 17C3.25 14.9289 4.92893 13.25 7 13.25H7.34087C7.52536 13.25 7.70869 13.2792 7.88407 13.3364L8.74959 13.6191C10.2119 14.0965 11.7881 14.0965 13.2504 13.6191L14.1159 13.3364C14.2913 13.2792 14.4746 13.25 14.6591 13.25H15C17.0711 13.25 18.75 14.9289 18.75 17V18.1883C18.75 18.9415 18.2041 19.5837 17.4607 19.7051C13.1819 20.4037 8.8181 20.4037 4.53927 19.7051C3.79588 19.5837 3.25 18.9415 3.25 18.1883V17ZM7 14.75C5.75736 14.75 4.75 15.7574 4.75 17V18.1883C4.75 18.2064 4.76311 18.2218 4.78097 18.2247C8.89972 18.8972 13.1003 18.8972 17.219 18.2247C17.2369 18.2218 17.25 18.2064 17.25 18.1883V17C17.25 15.7574 16.2426 14.75 15 14.75H14.6591C14.6328 14.75 14.6066 14.7542 14.5815 14.7623L13.716 15.045C11.9512 15.6212 10.0488 15.6212 8.28398 15.045L7.41847 14.7623C7.39342 14.7542 7.36722 14.75 7.34087 14.75H7Z" fill="#F23F32"/>
<path d="M20.9998 9.00008L18.9998 11.0001M18.9998 9.00008L20.9998 11.0001M21.6665 7.66675H17.9998L15.6665 10.0001L17.9998 12.3334H21.6665C21.8433 12.3334 22.0129 12.2632 22.1379 12.1382C22.2629 12.0131 22.3332 11.8436 22.3332 11.6667V8.33341C22.3332 8.1566 22.2629 7.98703 22.1379 7.86201C22.0129 7.73699 21.8433 7.66675 21.6665 7.66675Z" stroke="#F23F32" stroke-width="0.7" stroke-linecap="round" stroke-linejoin="round"/>
</svg>
