<svg width="18" height="18" viewBox="0 0 18 18" fill="none" xmlns="http://www.w3.org/2000/svg">
<path d="M4.31649 0.768576C7.40406 0.423496 10.5955 0.423496 13.683 0.768576C14.8422 0.898136 15.8599 1.52501 16.5036 2.43541L8.49976 10.4391L6.03009 7.96952C5.7372 7.67662 5.26232 7.67662 4.96943 7.96952C4.67654 8.26242 4.67654 8.73722 4.96943 9.03012L7.96946 12.0301C8.26236 12.323 8.73716 12.323 9.03006 12.0301L17.1456 3.91472C17.168 4.02429 17.186 4.13555 17.1992 4.24831C17.5684 7.40522 17.5684 10.5944 17.1992 13.7513C16.9843 15.5883 15.5094 17.0269 13.683 17.2311C10.5955 17.5761 7.40406 17.5761 4.31649 17.2311C2.49011 17.0269 1.01521 15.5883 0.80036 13.7513C0.43113 10.5944 0.43113 7.40522 0.80036 4.24831C1.01521 2.41135 2.49011 0.972696 4.31649 0.768576Z" fill="#6365EF"/>
</svg>
