<svg width="600" height="330" viewBox="0 0 1139 530" fill="none" xmlns="http://www.w3.org/2000/svg">
<path d="M767 304.163C767 428.427 684.397 529.163 582.5 529.163C480.603 529.163 398 428.427 398 304.163C398 179.899 480.603 79.1631 582.5 79.1631C684.397 79.1631 767 179.899 767 304.163ZM486.822 304.163C486.822 368.604 529.659 420.843 582.5 420.843C635.341 420.843 678.178 368.604 678.178 304.163C678.178 239.723 635.341 187.483 582.5 187.483C529.659 187.483 486.822 239.723 486.822 304.163Z" fill="white"/>
<path d="M767 304.163C767 333.711 762.228 362.969 752.956 390.267C743.684 417.565 730.094 442.369 712.961 463.262C695.829 484.155 675.49 500.729 653.105 512.036C630.721 523.343 606.729 529.163 582.5 529.163L582.5 420.843C595.065 420.843 607.506 417.825 619.114 411.961C630.722 406.098 641.27 397.503 650.154 386.668C659.039 375.834 666.086 362.971 670.895 348.815C675.703 334.658 678.178 319.486 678.178 304.163H767Z" fill="#5FCEF6"/>
<line x1="504.656" y1="370.481" x2="917.656" y2="163.481" stroke="black" stroke-width="6"/>
<path d="M930.558 154.236C920.413 133.981 906.378 115.923 889.255 101.093C872.131 86.2623 852.254 74.9497 830.759 67.8009C809.263 60.6522 786.57 57.8073 763.975 59.4287C741.38 61.0501 719.326 67.106 699.072 77.2506C678.817 87.3953 660.759 101.43 645.928 118.554C631.098 135.677 619.785 155.554 612.637 177.049C605.488 198.545 602.643 221.238 604.264 243.833C605.886 266.428 611.942 288.482 622.086 308.737L776.322 231.486L930.558 154.236Z" fill="#C5C4FF"/>
<path d="M157.002 111.847L261.94 111.847L124.502 382.094L15.7828 382.094L157.002 111.847Z" fill="white"/>
<rect x="326" y="273.163" width="256" height="90" transform="rotate(90 326 273.163)" fill="white"/>
<rect x="286" y="273.163" width="256" height="50" transform="rotate(90 286 273.163)" fill="#F1BF62"/>
<rect x="16" y="333.163" width="324" height="90" fill="white"/>
<path d="M117.649 147.163L0 401.163H236L117.649 147.163Z" fill="#3D38D0"/>
<path d="M955.221 111.579L1060.16 111.579L922.721 381.826L814.002 381.826L955.221 111.579Z" fill="white"/>
<rect x="814.219" y="332.896" width="324" height="90" fill="white"/>
<circle cx="998" cy="325.162" r="95" fill="#F1BF62"/>
<rect x="1124.22" y="272.896" width="256" height="90" transform="rotate(90 1124.22 272.896)" fill="white"/>
</svg>
