<svg width="24" height="24" viewBox="0 0 24 24" fill="none" xmlns="http://www.w3.org/2000/svg">
<path d="M8 5.75C7.59 5.75 7.25 5.41 7.25 5V2C7.25 1.59 7.59 1.25 8 1.25C8.41 1.25 8.75 1.59 8.75 2V5C8.75 5.41 8.41 5.75 8 5.75ZM16 5.75C15.59 5.75 15.25 5.41 15.25 5V2C15.25 1.59 15.59 1.25 16 1.25C16.41 1.25 16.75 1.59 16.75 2V5C16.75 5.41 16.41 5.75 16 5.75ZM8.5 14.498C8.37 14.498 8.24 14.468 8.12 14.418C7.99 14.368 7.89 14.298 7.79 14.208C7.61 14.018 7.5 13.768 7.5 13.498C7.5 13.368 7.53 13.238 7.58 13.118C7.63 12.998 7.7 12.888 7.79 12.788C7.89 12.698 7.99 12.628 8.12 12.578C8.48 12.428 8.93 12.508 9.21 12.788C9.39 12.978 9.5 13.238 9.5 13.498C9.5 13.558 9.49 13.628 9.48 13.698C9.47 13.758 9.45 13.818 9.42 13.878C9.4 13.938 9.37 13.998 9.33 14.058C9.3 14.108 9.25 14.158 9.21 14.208C9.02 14.388 8.76 14.498 8.5 14.498ZM12 14.499C11.87 14.499 11.74 14.469 11.62 14.419C11.49 14.369 11.39 14.299 11.29 14.209C11.11 14.019 11 13.769 11 13.499C11 13.369 11.03 13.239 11.08 13.119C11.13 12.999 11.2 12.889 11.29 12.789C11.39 12.699 11.49 12.629 11.62 12.579C11.98 12.419 12.43 12.509 12.71 12.789C12.89 12.979 13 13.239 13 13.499C13 13.559 12.99 13.629 12.98 13.699C12.97 13.759 12.95 13.819 12.92 13.879C12.9 13.939 12.87 13.999 12.83 14.059C12.8 14.109 12.75 14.159 12.71 14.209C12.52 14.389 12.26 14.499 12 14.499ZM15.5 14.499C15.37 14.499 15.24 14.469 15.12 14.419C14.99 14.369 14.89 14.299 14.79 14.209L14.67 14.059C14.6321 14.0033 14.6019 13.9427 14.58 13.879C14.5511 13.8223 14.5309 13.7617 14.52 13.699C14.51 13.629 14.5 13.559 14.5 13.499C14.5 13.239 14.61 12.979 14.79 12.789C14.89 12.699 14.99 12.629 15.12 12.579C15.49 12.419 15.93 12.509 16.21 12.789C16.39 12.979 16.5 13.239 16.5 13.499C16.5 13.559 16.49 13.629 16.48 13.699C16.47 13.759 16.45 13.819 16.42 13.879C16.4 13.939 16.37 13.999 16.33 14.059C16.3 14.109 16.25 14.159 16.21 14.209C16.02 14.389 15.76 14.499 15.5 14.499ZM8.5 18C8.37 18 8.24 17.97 8.12 17.92C8 17.87 7.89 17.8 7.79 17.71C7.61 17.52 7.5 17.26 7.5 17C7.5 16.87 7.53 16.74 7.58 16.62C7.63 16.49 7.7 16.38 7.79 16.29C8.16 15.92 8.84 15.92 9.21 16.29C9.39 16.48 9.5 16.74 9.5 17C9.5 17.26 9.39 17.52 9.21 17.71C9.02 17.89 8.76 18 8.5 18ZM12 18C11.74 18 11.48 17.89 11.29 17.71C11.11 17.52 11 17.26 11 17C11 16.87 11.03 16.74 11.08 16.62C11.13 16.49 11.2 16.38 11.29 16.29C11.66 15.92 12.34 15.92 12.71 16.29C12.8 16.38 12.87 16.49 12.92 16.62C12.97 16.74 13 16.87 13 17C13 17.26 12.89 17.52 12.71 17.71C12.52 17.89 12.26 18 12 18ZM15.5 18C15.24 18 14.98 17.89 14.79 17.71C14.6975 17.6161 14.6259 17.5036 14.58 17.38C14.5286 17.2598 14.5015 17.1307 14.5 17C14.5 16.87 14.53 16.74 14.58 16.62C14.63 16.49 14.7 16.38 14.79 16.29C15.02 16.06 15.37 15.95 15.69 16.02C15.76 16.03 15.82 16.05 15.88 16.08C15.94 16.1 16 16.13 16.06 16.17C16.11 16.2 16.16 16.25 16.21 16.29C16.39 16.48 16.5 16.74 16.5 17C16.5 17.26 16.39 17.52 16.21 17.71C16.02 17.89 15.76 18 15.5 18ZM20.5 9.84H3.5C3.09 9.84 2.75 9.5 2.75 9.09C2.75 8.68 3.09 8.34 3.5 8.34H20.5C20.91 8.34 21.25 8.68 21.25 9.09C21.25 9.5 20.91 9.84 20.5 9.84Z" fill="white"/>
<path d="M16 22.75H8C4.35 22.75 2.25 20.65 2.25 17V8.5C2.25 4.85 4.35 2.75 8 2.75H16C19.65 2.75 21.75 4.85 21.75 8.5V17C21.75 20.65 19.65 22.75 16 22.75ZM8 4.25C5.14 4.25 3.75 5.64 3.75 8.5V17C3.75 19.86 5.14 21.25 8 21.25H16C18.86 21.25 20.25 19.86 20.25 17V8.5C20.25 5.64 18.86 4.25 16 4.25H8Z" fill="white"/>
</svg>
