<svg width="24" height="24" viewBox="0 0 24 24" fill="none" xmlns="http://www.w3.org/2000/svg">
<path d="M4.5 4.5C4.5 3.70435 4.81607 2.94129 5.37868 2.37868C5.94129 1.81607 6.70435 1.5 7.5 1.5C8.29565 1.5 9.05871 1.81607 9.62132 2.37868C10.1839 2.94129 10.5 3.70435 10.5 4.5C10.5 5.29565 10.1839 6.05871 9.62132 6.62132C9.05871 7.18393 8.29565 7.5 7.5 7.5C6.70435 7.5 5.94129 7.18393 5.37868 6.62132C4.81607 6.05871 4.5 5.29565 4.5 4.5Z" fill="#6365EF"/>
<path d="M14.6681 6.87601L14.7311 6.92402C15.3676 7.39577 16.1648 7.59664 16.9488 7.48278C17.7328 7.36892 18.4399 6.94958 18.9158 6.31627C19.3918 5.68296 19.5979 4.88709 19.4892 4.10236C19.3805 3.31764 18.9659 2.60775 18.3357 2.12763C17.7056 1.64751 16.9111 1.43614 16.1256 1.53964C15.3402 1.64314 14.6276 2.05311 14.1433 2.68009C13.6591 3.30706 13.4425 4.10013 13.5408 4.88623C13.6391 5.67232 14.0444 6.38762 14.6681 6.87601Z" fill="#6365EF"/>
<path d="M9.40189 8.99993C9.5903 8.64317 9.84872 8.32809 10.1617 8.07351C10.4747 7.81894 10.8358 7.63012 11.2235 7.51833C11.6111 7.40655 12.0173 7.3741 12.4178 7.42294C12.8183 7.47177 13.2048 7.60088 13.5542 7.80255C13.9037 8.00421 14.2088 8.27428 14.4515 8.59661C14.6941 8.91894 14.8693 9.28689 14.9664 9.67847C15.0636 10.07 15.0807 10.4772 15.0169 10.8756C14.9531 11.2739 14.8095 11.6553 14.5949 11.9969C14.182 12.6541 13.5304 13.1257 12.7771 13.3126C12.0238 13.4995 11.2274 13.3872 10.5551 12.9992C9.8829 12.6113 9.38719 11.9779 9.17215 11.2321C8.9571 10.4863 9.03945 9.68625 9.40189 8.99993Z" fill="#6365EF"/>
<path d="M3.75 9H7.755C7.59 9.4695 7.5 9.975 7.5 10.5C7.5 11.652 7.9335 12.705 8.646 13.5H8.25C7.47666 13.4999 6.72217 13.7388 6.08983 14.184C5.45748 14.6292 4.97817 15.2589 4.7175 15.987C4.214 15.7847 3.74257 15.5104 3.318 15.1725C2.19 14.265 1.5 12.924 1.5 11.25C1.5 10.6533 1.73705 10.081 2.15901 9.65901C2.58097 9.23705 3.15326 9 3.75 9Z" fill="#6365EF"/>
<path d="M15.7495 13.5C17.377 13.5 18.763 14.5365 19.2805 15.987C19.7905 15.7785 20.263 15.507 20.6815 15.1725C21.8095 14.265 22.4995 12.924 22.4995 11.25C22.4995 10.6533 22.2625 10.081 21.8405 9.65901C21.4185 9.23705 20.8463 9 20.2495 9H16.2445C16.4095 9.4695 16.4995 9.975 16.4995 10.5C16.5009 11.6072 16.0927 12.6757 15.3535 13.5H15.7495Z" fill="#6365EF"/>
<path d="M17.8305 16.392C17.94 16.656 18 16.947 18 17.25C18 18.924 17.3115 20.265 16.182 21.1725C15.0705 22.065 13.5795 22.5 12 22.5C10.4205 22.5 8.92951 22.065 7.81801 21.1725C6.69001 20.265 6.00001 18.924 6.00001 17.25C5.99922 16.9543 6.05687 16.6614 6.16967 16.388C6.28246 16.1147 6.44816 15.8663 6.65725 15.6573C6.86634 15.4482 7.11469 15.2825 7.38803 15.1697C7.66137 15.0569 7.95431 14.9992 8.25001 15H15.75C16.1957 14.9999 16.6313 15.1322 17.0017 15.38C17.3721 15.6278 17.6606 15.98 17.8305 16.392Z" fill="#6365EF"/>
</svg>
