<svg width="56" height="56" viewBox="0 0 56 56" fill="none" xmlns="http://www.w3.org/2000/svg">
<rect x="4" y="4" width="48" height="48" rx="24" fill="#A5A6EE"/>
<path d="M24.5828 35.48H22.5828C22.1661 35.48 21.7495 35.23 21.5828 34.8967C21.3328 34.5633 21.3328 34.23 21.4995 33.8133C22.4995 31.48 24.7495 29.8967 27.3328 29.8967C29.9162 29.8967 32.0828 27.73 32.0828 25.1466C32.0828 22.5633 29.9162 20.48 27.2495 20.48C24.6661 20.48 22.4995 22.6466 22.4995 25.23C22.4995 26.73 23.1661 28.0633 24.2495 28.8967C22.3328 29.6467 20.6661 31.23 19.8328 33.23C19.4995 34.0633 19.5828 35.0633 20.0828 35.8133C20.6661 36.6467 21.4995 37.1467 22.4995 37.1467H24.4995C24.9995 37.1467 25.3328 36.8133 25.3328 36.3133C25.3328 35.8133 25.0828 35.48 24.5828 35.48ZM24.1661 25.23C24.1661 23.5633 25.5828 22.1466 27.2495 22.1466C28.9162 22.1466 30.3328 23.5633 30.3328 25.23C30.3328 26.8967 28.9162 28.3133 27.2495 28.3133C25.5828 28.3133 24.1661 26.8967 24.1661 25.23Z" fill="white"/>
<path d="M35.6673 27.98C34.834 27.1466 33.4173 27.1466 32.584 27.98L28.1673 32.3966C27.1673 33.3966 26.584 34.8133 26.584 36.3133C26.584 36.8133 26.9173 37.1466 27.4173 37.1466C28.9173 37.1466 30.2507 36.5633 31.334 35.5633L35.7507 31.1466C36.1673 30.73 36.4173 30.1466 36.4173 29.5633C36.4173 28.98 36.084 28.3966 35.6673 27.98ZM34.5007 29.98L30.084 34.3966C29.584 34.8966 29.0007 35.23 28.334 35.3966C28.5007 34.73 28.834 34.1466 29.334 33.6466L33.7507 29.23C33.834 29.1466 34.0007 29.0633 34.1673 29.0633C34.334 29.0633 34.4173 29.1466 34.5007 29.23C34.584 29.3133 34.6673 29.48 34.6673 29.5633C34.6673 29.6466 34.584 29.8133 34.5007 29.98Z" fill="white"/>
<rect x="4" y="4" width="48" height="48" rx="24" stroke="#6365EF" stroke-width="8"/>
</svg>
