<svg width="56" height="56" viewBox="0 0 56 56" fill="none" xmlns="http://www.w3.org/2000/svg">
<rect x="4" y="4" width="48" height="48" rx="24" fill="#FEE4E2"/>
<mask id="mask0_2349_15915" style="mask-type:alpha" maskUnits="userSpaceOnUse" x="16" y="16" width="24" height="24">
<rect x="16" y="16" width="24" height="24" fill="#D9D9D9"/>
</mask>
<g mask="url(#mask0_2349_15915)">
<path d="M17 37L28 18L39 37H17ZM20.45 35H35.55L28 22L20.45 35ZM28 34C28.2833 34 28.5208 33.9042 28.7125 33.7125C28.9042 33.5208 29 33.2833 29 33C29 32.7167 28.9042 32.4792 28.7125 32.2875C28.5208 32.0958 28.2833 32 28 32C27.7167 32 27.4792 32.0958 27.2875 32.2875C27.0958 32.4792 27 32.7167 27 33C27 33.2833 27.0958 33.5208 27.2875 33.7125C27.4792 33.9042 27.7167 34 28 34ZM27 31H29V26H27V31Z" fill="#D92D20"/>
</g>
<rect x="4" y="4" width="48" height="48" rx="24" stroke="#FEF3F2" stroke-width="8"/>
</svg>
