<svg width="24" height="24" viewBox="0 0 24 24" fill="none" xmlns="http://www.w3.org/2000/svg">
<g id="fluent:reward-16-filled">
<path id="Vector" d="M4.37519 2C3.74525 2 3.14111 2.25024 2.69568 2.69568C2.25024 3.14111 2 3.74525 2 4.37519V6.26426C2 7.08766 2.42753 7.85089 3.12584 8.28317L9.2475 12.0676C8.31638 12.5693 7.57932 13.3674 7.15312 14.3354C6.72692 15.3034 6.63597 16.386 6.89467 17.4115C7.15338 18.4371 7.74694 19.347 8.5813 19.997C9.41566 20.647 10.4431 21 11.5008 21C12.5584 21 13.5859 20.647 14.4202 19.997C15.2546 19.347 15.8481 18.4371 16.1069 17.4115C16.3656 16.386 16.2746 15.3034 15.8484 14.3354C15.4222 13.3674 14.6851 12.5693 13.754 12.0676L19.8757 8.28317C20.2197 8.07038 20.5038 7.77324 20.7008 7.41992C20.8978 7.06659 21.0013 6.6688 21.0015 6.26426V4.37519C21.0015 3.74525 20.7513 3.14111 20.3058 2.69568C19.8604 2.25024 19.2563 2 18.6263 2H4.37519ZM8.33384 9.64178V3.58346H14.6677V9.64178L11.9172 11.3424C11.7921 11.4198 11.6479 11.4608 11.5008 11.4608C11.3536 11.4608 11.2094 11.4198 11.0843 11.3424L8.33384 9.64178ZM11.5008 13.0842C12.3407 13.0842 13.1462 13.4179 13.7401 14.0118C14.334 14.6057 14.6677 15.4112 14.6677 16.2511C14.6677 17.0911 14.334 17.8966 13.7401 18.4905C13.1462 19.0844 12.3407 19.4181 11.5008 19.4181C10.6608 19.4181 9.85532 19.0844 9.26141 18.4905C8.6675 17.8966 8.33384 17.0911 8.33384 16.2511C8.33384 15.4112 8.6675 14.6057 9.26141 14.0118C9.85532 13.4179 10.6608 13.0842 11.5008 13.0842Z" fill="#6365EF"/>
</g>
</svg>
