<svg width="25" height="24" viewBox="0 0 25 24" fill="none" xmlns="http://www.w3.org/2000/svg">
<path d="M22.0609 10.7381L20.7109 9.15812C20.4609 8.85812 20.2509 8.29812 20.2509 7.89812V6.19812C20.2509 5.13812 19.3809 4.26813 18.3209 4.26813H16.6209C16.2209 4.26813 15.6509 4.05813 15.3509 3.80813L13.7709 2.45812C13.0809 1.86813 11.9509 1.86813 11.2609 2.45812L9.66086 3.80813C9.36086 4.05813 8.80086 4.26813 8.40086 4.26813H6.67086C5.61086 4.26813 4.74086 5.13812 4.74086 6.19812V7.89812C4.74086 8.28812 4.54086 8.84812 4.29086 9.14812L2.94086 10.7381C2.36086 11.4381 2.36086 12.5581 2.94086 13.2381L4.29086 14.8281C4.54086 15.1181 4.74086 15.6881 4.74086 16.0781V17.7881C4.74086 18.8481 5.61086 19.7181 6.67086 19.7181H8.41086C8.80086 19.7181 9.37086 19.9281 9.67086 20.1781L11.2509 21.5281C11.9409 22.1181 13.0709 22.1181 13.7609 21.5281L15.3409 20.1781C15.6409 19.9281 16.2009 19.7181 16.6009 19.7181H18.3009C19.3609 19.7181 20.2309 18.8481 20.2309 17.7881V16.0881C20.2309 15.6881 20.4409 15.1281 20.6909 14.8281L22.0409 13.2481C22.6509 12.5681 22.6509 11.4381 22.0609 10.7381ZM11.7509 8.12813C11.7509 7.71813 12.0909 7.37812 12.5009 7.37812C12.9109 7.37812 13.2509 7.71813 13.2509 8.12813V12.9581C13.2509 13.3681 12.9109 13.7081 12.5009 13.7081C12.0909 13.7081 11.7509 13.3681 11.7509 12.9581V8.12813ZM12.5009 16.8681C11.9509 16.8681 11.5009 16.4181 11.5009 15.8681C11.5009 15.3181 11.9409 14.8681 12.5009 14.8681C13.0509 14.8681 13.5009 15.3181 13.5009 15.8681C13.5009 16.4181 13.0609 16.8681 12.5009 16.8681Z" fill="#428EFF"/>
</svg>
