<svg width="24" height="24" viewBox="0 0 24 24" fill="none" xmlns="http://www.w3.org/2000/svg">
<path d="M21.5628 10.7381L20.2128 9.15812C19.9628 8.85812 19.7528 8.29812 19.7528 7.89812V6.19812C19.7528 5.13812 18.8828 4.26813 17.8228 4.26813H16.1228C15.7228 4.26813 15.1528 4.05813 14.8528 3.80813L13.2728 2.45812C12.5828 1.86813 11.4528 1.86813 10.7628 2.45812L9.16281 3.80813C8.86281 4.05813 8.30281 4.26813 7.90281 4.26813H6.17281C5.11281 4.26813 4.24281 5.13812 4.24281 6.19812V7.89812C4.24281 8.28812 4.04281 8.84812 3.79281 9.14812L2.44281 10.7381C1.86281 11.4381 1.86281 12.5581 2.44281 13.2381L3.79281 14.8281C4.04281 15.1181 4.24281 15.6881 4.24281 16.0781V17.7881C4.24281 18.8481 5.11281 19.7181 6.17281 19.7181H7.91281C8.30281 19.7181 8.87281 19.9281 9.17281 20.1781L10.7528 21.5281C11.4428 22.1181 12.5728 22.1181 13.2628 21.5281L14.8428 20.1781C15.1428 19.9281 15.7028 19.7181 16.1028 19.7181H17.8028C18.8628 19.7181 19.7328 18.8481 19.7328 17.7881V16.0881C19.7328 15.6881 19.9428 15.1281 20.1928 14.8281L21.5428 13.2481C22.1528 12.5681 22.1528 11.4381 21.5628 10.7381ZM11.2528 8.12813C11.2528 7.71813 11.5928 7.37812 12.0028 7.37812C12.4128 7.37812 12.7528 7.71813 12.7528 8.12813V12.9581C12.7528 13.3681 12.4128 13.7081 12.0028 13.7081C11.5928 13.7081 11.2528 13.3681 11.2528 12.9581V8.12813ZM12.0028 16.8681C11.4528 16.8681 11.0028 16.4181 11.0028 15.8681C11.0028 15.3181 11.4428 14.8681 12.0028 14.8681C12.5528 14.8681 13.0028 15.3181 13.0028 15.8681C13.0028 16.4181 12.5628 16.8681 12.0028 16.8681Z" fill="white"/>
</svg>
