<svg width="20" height="20" viewBox="0 0 20 20" fill="none" xmlns="http://www.w3.org/2000/svg">
<path d="M19.5609 8.738L18.2109 7.158C17.9609 6.858 17.7509 6.298 17.7509 5.898V4.198C17.7509 3.138 16.8809 2.268 15.8209 2.268H14.1209C13.7209 2.268 13.1509 2.058 12.8509 1.808L11.2709 0.458003C10.5809 -0.131997 9.45086 -0.131997 8.76086 0.458003L7.16086 1.808C6.86086 2.058 6.30086 2.268 5.90086 2.268H4.17086C3.11086 2.268 2.24086 3.138 2.24086 4.198V5.898C2.24086 6.288 2.04086 6.848 1.79086 7.148L0.440859 8.738C-0.139141 9.438 -0.139141 10.558 0.440859 11.238L1.79086 12.828C2.04086 13.118 2.24086 13.688 2.24086 14.078V15.788C2.24086 16.848 3.11086 17.718 4.17086 17.718H5.91086C6.30086 17.718 6.87086 17.928 7.17086 18.178L8.75086 19.528C9.44086 20.118 10.5709 20.118 11.2609 19.528L12.8409 18.178C13.1409 17.928 13.7009 17.718 14.1009 17.718H15.8009C16.8609 17.718 17.7309 16.848 17.7309 15.788V14.088C17.7309 13.688 17.9409 13.128 18.1909 12.828L19.5409 11.248C20.1509 10.568 20.1509 9.438 19.5609 8.738ZM9.25086 6.128C9.25086 5.718 9.59086 5.378 10.0009 5.378C10.4109 5.378 10.7509 5.718 10.7509 6.128V10.958C10.7509 11.368 10.4109 11.708 10.0009 11.708C9.59086 11.708 9.25086 11.368 9.25086 10.958V6.128ZM10.0009 14.868C9.45086 14.868 9.00086 14.418 9.00086 13.868C9.00086 13.318 9.44086 12.868 10.0009 12.868C10.5509 12.868 11.0009 13.318 11.0009 13.868C11.0009 14.418 10.5609 14.868 10.0009 14.868Z" fill="white"/>
</svg>
