<svg width="56" height="56" viewBox="0 0 56 56" fill="none" xmlns="http://www.w3.org/2000/svg">
<rect x="4" y="4" width="48" height="48" rx="24" fill="#A5A6EE"/>
<path d="M27.5 17C21.704 17 17 21.704 17 27.5C17 33.296 21.704 38 27.5 38C33.296 38 38 33.296 38 27.5C38 21.704 33.296 17 27.5 17ZM27.5 32.75C26.9225 32.75 26.45 32.2775 26.45 31.7V27.5C26.45 26.9225 26.9225 26.45 27.5 26.45C28.0775 26.45 28.55 26.9225 28.55 27.5V31.7C28.55 32.2775 28.0775 32.75 27.5 32.75ZM28.55 24.35H26.45V22.25H28.55V24.35Z" fill="white"/>
<rect x="4" y="4" width="48" height="48" rx="24" stroke="#6365EF" stroke-width="8"/>
</svg>
