<svg width="261" height="50" viewBox="0 0 261 50" fill="none" xmlns="http://www.w3.org/2000/svg">
<g clip-path="url(#clip0_26_651)">
<path d="M109.377 14.7457H105.491V16.4404C104.03 15.0671 102.511 14.3366 100.582 14.3366C96.6376 14.3366 93.3357 17.4923 93.3357 22.2844C93.3357 26.9303 96.6083 30.2614 100.787 30.2614C102.803 30.2614 104.206 29.5894 105.491 28.3329C105.491 29.7939 105.462 30.8458 104.527 31.7224C103.826 32.3652 102.657 32.7451 101.225 32.7451C99.5888 32.7451 98.42 32.336 97.631 31.401H93.3357C94.3876 34.6444 97.1051 36.3099 101.371 36.3099C103.738 36.3099 105.608 35.7548 107.011 34.586C108.793 33.0665 109.377 31.0504 109.377 28.0407V14.7457ZM101.459 17.9014C104.03 17.9014 105.696 19.8299 105.696 22.3428C105.696 24.9726 103.913 26.6966 101.517 26.6966C99.092 26.6966 97.2512 24.885 97.2512 22.3136C97.2512 19.9176 98.8875 17.9014 101.459 17.9014ZM112.918 30.2614H116.804V8.75558H112.918V30.2614ZM127.622 14.3366C123.385 14.3366 119.587 17.8137 119.587 22.5181C119.587 27.0764 123.151 30.6705 127.651 30.6705C132.385 30.6705 135.862 26.9888 135.862 22.4889C135.862 17.9014 132.151 14.3366 127.622 14.3366ZM127.68 18.0183C130.223 18.0183 131.947 19.8884 131.947 22.5181C131.947 25.2356 130.077 26.9888 127.68 26.9888C125.168 26.9888 123.502 25.1187 123.502 22.4889C123.502 19.9176 125.255 18.0183 127.68 18.0183ZM142.894 30.2614H145.319L148.738 21.4078L152.04 30.2614H154.523L160.163 14.7457H156.335L153.208 23.4532L149.907 14.7457H147.569L144.209 23.5701L141.111 14.7457H137.284L142.894 30.2614ZM161.998 30.2614H165.884V14.7457H161.998V30.2614ZM163.926 8.3465C162.582 8.3465 161.443 9.3692 161.443 10.7133C161.443 12.1451 162.495 13.4015 163.926 13.4015C165.3 13.4015 166.41 12.2912 166.41 10.9179C166.41 9.5153 165.329 8.3465 163.926 8.3465ZM173.284 14.7457H169.397V30.2614H173.284V23.6577C173.284 22.0506 173.254 20.6481 174.043 19.3916C174.657 18.4274 175.592 17.9014 176.673 17.9014C179.04 17.9014 179.303 19.8591 179.303 22.9272V30.2614H183.189V19.6546C183.189 16.3235 180.764 14.3366 177.871 14.3366C176.147 14.3366 174.774 15.0671 173.284 16.3235V14.7457ZM202.288 14.7457H198.401V16.4404C196.94 15.0671 195.421 14.3366 193.492 14.3366C189.548 14.3366 186.246 17.4923 186.246 22.2844C186.246 26.9303 189.518 30.2614 193.697 30.2614C195.713 30.2614 197.116 29.5894 198.401 28.3329C198.401 29.7939 198.372 30.8458 197.437 31.7224C196.736 32.3652 195.567 32.7451 194.135 32.7451C192.499 32.7451 191.33 32.336 190.541 31.401H186.246C187.298 34.6444 190.015 36.3099 194.281 36.3099C196.648 36.3099 198.518 35.7548 199.921 34.586C201.703 33.0665 202.288 31.0504 202.288 28.0407V14.7457ZM194.369 17.9014C196.94 17.9014 198.606 19.8299 198.606 22.3428C198.606 24.9726 196.823 26.6966 194.427 26.6966C192.002 26.6966 190.161 24.885 190.161 22.3136C190.161 19.9176 191.798 17.9014 194.369 17.9014ZM210.094 28.6251C211.496 29.9692 212.928 30.6705 214.886 30.6705C218.831 30.6705 222.308 27.281 222.308 22.5181C222.308 17.6676 218.977 14.3366 214.974 14.3366C213.103 14.3366 211.496 15.0379 210.094 16.4404V8.75558H206.208V30.2614H210.094V28.6251ZM214.185 17.9014C216.756 17.9014 218.392 19.9468 218.392 22.4889C218.392 25.1479 216.61 27.1057 214.185 27.1057C211.789 27.1057 209.918 25.2648 209.918 22.4597C209.918 19.7423 211.701 17.9014 214.185 17.9014ZM225.526 21.8461C225.526 23.1318 225.468 23.8623 225.673 25.1187C226.286 28.742 228.595 30.6413 232.335 30.6413C234.497 30.6413 236.104 30.0569 237.331 28.6835C238.968 26.8719 239.143 24.7681 239.143 21.9045V14.7457H235.257V23.0149C235.257 25.6447 234.409 27.0764 232.335 27.0764C230.289 27.0764 229.413 25.6155 229.413 22.8396V14.7457H225.526V21.8461ZM254.501 30.2614H258.387V8.75558H254.501V16.4404C253.099 15.0379 251.492 14.3366 249.621 14.3366C245.589 14.3366 242.316 17.6676 242.316 22.5181C242.316 27.281 245.764 30.6705 249.709 30.6705C251.667 30.6705 253.128 29.9692 254.501 28.6251V30.2614ZM250.41 17.9014C252.865 17.9014 254.676 19.7423 254.676 22.4597C254.676 25.294 252.806 27.1057 250.41 27.1057C247.985 27.1057 246.232 25.1479 246.232 22.4889C246.232 19.9468 247.839 17.9014 250.41 17.9014Z" fill="white"/>
<mask id="mask0_26_651" style="mask-type:luminance" maskUnits="userSpaceOnUse" x="0" y="0" width="76" height="50">
<path d="M75.5443 0.000488281H0V49.1332H75.5443V0.000488281Z" fill="white"/>
</mask>
<g mask="url(#mask0_26_651)">
<path d="M4.14192 0C4.96111 0 5.76191 0.242919 6.44304 0.698039C7.12418 1.15316 7.65506 1.80004 7.96855 2.55687C8.28204 3.31371 8.36407 4.14651 8.20425 4.94997C8.04443 5.75342 7.64995 6.49144 7.0707 7.0707C6.49144 7.64995 5.75342 8.04443 4.94997 8.20425C4.14651 8.36407 3.31371 8.28204 2.55687 7.96855C1.80004 7.65506 1.15316 7.12418 0.698039 6.44304C0.242919 5.76191 0 4.96111 0 4.14192C0 3.04341 0.436379 1.9899 1.21314 1.21314C1.9899 0.436379 3.04341 0 4.14192 0Z" fill="white"/>
<path d="M20.874 37.4411C17.0522 37.4382 13.3489 36.1145 10.3913 33.6941C7.43374 31.2738 5.40363 27.9055 4.64486 24.1598C3.88609 20.4142 4.4453 16.5214 6.22778 13.1408C8.01025 9.76021 10.9064 7.09962 14.4258 5.60967C18.4704 3.92077 23.0194 3.90307 27.0771 5.56044C31.1348 7.21781 34.3706 10.4153 36.0762 14.4529C37.7818 18.4905 37.8184 23.0394 36.1778 27.1039C34.5372 31.1684 31.3532 34.4174 27.3227 36.1397C25.2825 37.0029 23.0892 37.4455 20.874 37.4411ZM20.874 10.8197C18.3894 10.8229 15.9946 11.7489 14.1541 13.4179C12.3136 15.087 11.1586 17.3801 10.9132 19.8526C10.6677 22.325 11.3494 24.8004 12.8258 26.7987C14.3023 28.797 16.4683 30.1757 18.9038 30.6674C21.3392 31.159 23.8705 30.7285 26.0065 29.4595C28.1426 28.1904 29.7311 26.1732 30.464 23.7992C31.1969 21.4252 31.022 18.8636 29.9731 16.6113C28.9242 14.3589 27.0761 12.5765 24.7873 11.6097C23.5493 11.0857 22.2183 10.817 20.874 10.8197Z" fill="white"/>
<path d="M58.9778 10.934C62.2543 10.934 65.4573 11.9056 68.1817 13.7259C70.9061 15.5463 73.0294 18.1337 74.2833 21.1608C75.5372 24.188 75.8653 27.519 75.2261 30.7326C74.5868 33.9462 73.009 36.8981 70.6921 39.215C68.3752 41.5318 65.4234 43.1097 62.2098 43.7489C58.9961 44.3881 55.6651 44.06 52.638 42.8062C49.6108 41.5523 47.0235 39.4289 45.2031 36.7045C43.3827 33.9801 42.4111 30.7772 42.4111 27.5006C42.4113 23.1069 44.1567 18.8932 47.2635 15.7864C50.3704 12.6796 54.5841 10.9341 58.9778 10.934ZM58.9778 37.4406C60.9437 37.441 62.8657 36.8584 64.5006 35.7665C66.1354 34.6745 67.4098 33.1223 68.1625 31.3061C68.9152 29.4899 69.1124 27.4913 68.7292 25.5631C68.3459 23.6348 67.3995 21.8635 66.0096 20.4731C64.6196 19.0827 62.8486 18.1357 60.9204 17.7519C58.9923 17.3681 56.9936 17.5646 55.1772 18.3167C53.3608 19.0689 51.8081 20.3427 50.7157 21.9773C49.6233 23.6118 49.0401 25.5336 49.0399 27.4995C49.0429 30.1346 50.0909 32.6609 51.954 34.5243C53.8171 36.3877 56.3432 37.4361 58.9783 37.4395" fill="white"/>
<path d="M49.0367 25.8439C49.0367 26.5469 48.7575 27.2211 48.2604 27.7182C47.7633 28.2153 47.0891 28.4946 46.3861 28.4946H45.0608C44.3579 28.4943 43.684 28.2149 43.1871 27.7179C42.6903 27.2208 42.4111 26.5467 42.4111 25.8439V9.60863C42.4111 8.20282 42.9695 6.85456 43.9635 5.8604C44.9575 4.86624 46.3056 4.30759 47.7114 4.30731H49.0367V25.8439Z" fill="white"/>
</g>
<mask id="mask1_26_651" style="mask-type:luminance" maskUnits="userSpaceOnUse" x="0" y="0" width="76" height="50">
<path d="M75.5449 0H0V49.5679H75.5449V0Z" fill="white"/>
</mask>
<g mask="url(#mask1_26_651)">
<path d="M20.7717 49.5679C17.4968 49.5718 14.296 48.5934 11.5831 46.7591C9.83392 45.5775 8.32704 44.072 7.14374 42.324C6.87241 41.9232 6.6157 41.5037 6.38037 41.0774L8.39759 39.9128C9.1698 39.4763 10.0649 39.308 10.9429 39.4343C11.821 39.5606 12.6323 39.9744 13.2502 40.6109L13.2721 40.6329C14.4416 41.8009 15.8679 42.6795 17.4371 43.1986C19.0064 43.7177 20.6752 43.863 22.3106 43.6228C23.9459 43.3827 25.5026 42.7638 26.8563 41.8154C28.2101 40.8671 29.3236 39.6156 30.108 38.1606L35.163 41.0764C34.9271 41.5032 34.6699 41.9222 34.3996 42.3229C32.6156 44.9649 30.1039 47.033 27.1687 48.277C25.1449 49.1339 22.9689 49.5733 20.7712 49.5689" fill="white"/>
</g>
</g>
<defs>
<clipPath id="clip0_26_651">
<rect width="260.586" height="49.5679" fill="white"/>
</clipPath>
</defs>
</svg>
