<svg width="24" height="24" viewBox="0 0 24 24" fill="none" xmlns="http://www.w3.org/2000/svg">
<path d="M12.6764 19.9592C12.9514 20.0232 12.9764 20.3832 12.7084 20.4722L11.1284 20.9922C7.15839 22.2722 5.06839 21.2022 3.77839 17.2322L2.49839 13.2822C1.21839 9.31224 2.27839 7.21224 6.24839 5.93224L6.77239 5.75824C7.17539 5.62524 7.56739 6.02924 7.45239 6.43824C7.39639 6.64024 7.34239 6.85224 7.28839 7.07224L6.30839 11.2622C5.20839 15.9722 6.81839 18.5722 11.5284 19.6922L12.6764 19.9592Z" fill="#6365EF"/>
<path d="M17.1702 3.20903L15.5002 2.81903C12.1602 2.02903 10.1702 2.67903 9.00018 5.09903C8.70018 5.70903 8.46018 6.44903 8.26018 7.29903L7.28018 11.489C6.30018 15.669 7.59018 17.729 11.7602 18.719L13.4402 19.119C14.0202 19.259 14.5602 19.349 15.0602 19.389C18.1802 19.689 19.8402 18.229 20.6802 14.619L21.6602 10.439C22.6402 6.25903 21.3602 4.18903 17.1702 3.20903ZM15.2902 13.329C15.2002 13.669 14.9002 13.889 14.5602 13.889C14.5002 13.889 14.4402 13.879 14.3702 13.869L11.4602 13.129C11.2797 13.0695 11.1286 12.9438 11.0373 12.7771C10.946 12.6105 10.9214 12.4154 10.9683 12.2313C11.0153 12.0472 11.1304 11.8878 11.2904 11.7853C11.4504 11.6828 11.6433 11.6448 11.8302 11.679L14.7402 12.419C15.1502 12.519 15.3902 12.929 15.2902 13.329ZM18.2202 9.94903C18.1302 10.289 17.8302 10.509 17.4902 10.509C17.4302 10.509 17.3702 10.499 17.3002 10.489L12.4502 9.25903C12.2697 9.19953 12.1186 9.07376 12.0273 8.90713C11.936 8.74049 11.9114 8.54542 11.9583 8.36132C12.0053 8.17722 12.1204 8.01781 12.2804 7.91529C12.4404 7.81278 12.6333 7.7748 12.8202 7.80903L17.6702 9.03903C18.0802 9.12903 18.3202 9.53903 18.2202 9.94903Z" fill="#6365EF"/>
</svg>
