<svg width="23" height="22" viewBox="0 0 23 22" fill="none" xmlns="http://www.w3.org/2000/svg">
<circle cx="11.5" cy="11" r="11" fill="white"/>
<path d="M3.85817 18.9122C2.80756 17.8975 1.96955 16.6837 1.39305 15.3416C0.816556 13.9996 0.513107 12.5562 0.500415 11.0956C0.487723 9.63501 0.766042 8.18654 1.31913 6.83468C1.87222 5.48282 2.68901 4.25465 3.72183 3.22183C4.75465 2.18901 5.98282 1.37222 7.33468 0.819132C8.68654 0.266042 10.135 -0.0122767 11.5956 0.000415324C13.0562 0.0131073 14.4996 0.316556 15.8416 0.893055C17.1837 1.46955 18.3975 2.30756 19.4122 3.35817C21.4159 5.43279 22.5246 8.21142 22.4996 11.0956C22.4745 13.9797 21.3177 16.7387 19.2782 18.7782C17.2387 20.8177 14.4797 21.9745 11.5956 21.9996C8.71142 22.0246 5.93279 20.9159 3.85817 18.9122ZM8.33517 6.73517V15.5352H10.5352V6.73517H8.33517ZM12.7352 6.73517V15.5352H14.9352V6.73517H12.7352Z" fill="#E81B42"/>
</svg>
