<svg width="17" height="17" viewBox="0 0 17 17" fill="none" xmlns="http://www.w3.org/2000/svg">
<path fill-rule="evenodd" clip-rule="evenodd" d="M3.57082 0.257265C6.63992 -0.085755 9.81272 -0.085755 12.8818 0.257265C14.5945 0.448685 15.9762 1.7981 16.1774 3.51759C16.5443 6.65526 16.5443 9.82495 16.1774 12.9626C15.9762 14.6821 14.5945 16.0315 12.8818 16.2229C9.81272 16.5659 6.63992 16.5659 3.57082 16.2229C1.8581 16.0315 0.476337 14.6821 0.275227 12.9626C-0.0917425 9.82495 -0.0917425 6.65526 0.275227 3.51759C0.476337 1.7981 1.8581 0.448685 3.57082 0.257265ZM8.22632 3.24741C8.64052 3.24741 8.97632 3.58319 8.97632 3.99741V7.49006H12.469C12.8832 7.49006 13.219 7.82586 13.219 8.24006C13.219 8.65425 12.8832 8.99006 12.469 8.99006H8.97632V12.4827C8.97632 12.897 8.64052 13.2327 8.22632 13.2327C7.81212 13.2327 7.47632 12.897 7.47632 12.4827V8.99006H3.98371C3.56949 8.99006 3.23371 8.65425 3.23371 8.24006C3.23371 7.82586 3.56949 7.49006 3.98371 7.49006H7.47632V3.99741C7.47632 3.58319 7.81212 3.24741 8.22632 3.24741Z" fill="white"/>
</svg>
