<svg xmlns="http://www.w3.org/2000/svg" width="23.952" height="23.95" viewBox="0 0 23.952 23.95">
  <g id="Layer_2" data-name="Layer 2" transform="translate(0 0)">
    <path id="Path_127" data-name="Path 127" d="M17.689,1.974l-.311-.128A11.839,11.839,0,0,0,12.971,1a11.974,11.974,0,1,0,4.718.974Zm5.66,10.2h-9.18c1.445-3.441,2.938-6.969,3.592-8.406a10.378,10.378,0,0,1,5.588,8.406Zm0,1.6a10.2,10.2,0,0,1-.8,3.241l-6.179-3.241ZM12.971,23.352a10.378,10.378,0,1,1,3.3-20.2c-.567,1.221-1.652,3.816-3.991,9.4l-.16.479.239.351a.91.91,0,0,0,.535.375l8.853,4.678a10.378,10.378,0,0,1-8.781,4.925Z" transform="translate(-0.984 -1)" fill="#959595"/>
  </g>
</svg>
