<svg xmlns="http://www.w3.org/2000/svg" width="18.991" height="25.321" viewBox="0 0 18.991 25.321">
  <g id="shopping-list_1_" data-name="shopping-list (1)" transform="translate(-64)">
    <g id="Group_117" data-name="Group 117" transform="translate(67.166 9.496)">
      <g id="Group_116" data-name="Group 116">
        <path id="Path_153" data-name="Path 153" d="M134.122,192.24a.794.794,0,0,0-1.12,0l-2.6,2.607-1.022-1.024a.791.791,0,0,0-1.119,1.119l1.583,1.583a.784.784,0,0,0,.559.233.8.8,0,0,0,.56-.231l3.165-3.165A.792.792,0,0,0,134.122,192.24Z" transform="translate(-128.024 -192.008)" fill="#959595"/>
      </g>
    </g>
    <g id="Group_119" data-name="Group 119" transform="translate(67.166 15.826)">
      <g id="Group_118" data-name="Group 118">
        <path id="Path_154" data-name="Path 154" d="M134.122,320.24a.794.794,0,0,0-1.12,0l-2.6,2.607-1.022-1.022a.791.791,0,0,0-1.119,1.119l1.583,1.583a.793.793,0,0,0,1.119,0l3.165-3.165A.792.792,0,0,0,134.122,320.24Z" transform="translate(-128.024 -320.008)" fill="#959595"/>
      </g>
    </g>
    <g id="Group_121" data-name="Group 121" transform="translate(75.078 11.078)">
      <g id="Group_120" data-name="Group 120">
        <path id="Path_155" data-name="Path 155" d="M291.956,224h-3.165a.791.791,0,0,0,0,1.583h3.165a.791.791,0,0,0,0-1.583Z" transform="translate(-288 -224)" fill="#959595"/>
      </g>
    </g>
    <g id="Group_123" data-name="Group 123" transform="translate(75.078 17.408)">
      <g id="Group_122" data-name="Group 122">
        <path id="Path_156" data-name="Path 156" d="M291.956,352h-3.165a.791.791,0,1,0,0,1.583h3.165a.791.791,0,1,0,0-1.583Z" transform="translate(-288 -352)" fill="#959595"/>
      </g>
    </g>
    <g id="Group_125" data-name="Group 125" transform="translate(64)">
      <g id="Group_124" data-name="Group 124">
        <path id="Path_157" data-name="Path 157" d="M81.408,3.165H78.243V2.374a.792.792,0,0,0-.791-.791H75.735a2.376,2.376,0,0,0-4.479,0H69.539a.792.792,0,0,0-.791.791v.791H65.583A1.585,1.585,0,0,0,64,4.748V23.739a1.585,1.585,0,0,0,1.583,1.583H81.408a1.585,1.585,0,0,0,1.583-1.583V4.748A1.585,1.585,0,0,0,81.408,3.165Zm-11.078,0h1.583a.792.792,0,0,0,.791-.791.791.791,0,0,1,1.583,0,.792.792,0,0,0,.791.791h1.583V4.748H70.33ZM81.408,23.739H65.583V4.748h3.165v.791a.792.792,0,0,0,.791.791h7.913a.792.792,0,0,0,.791-.791V4.748h3.165Z" transform="translate(-64)" fill="#959595"/>
      </g>
    </g>
  </g>
</svg>
