<svg width="24" height="24" viewBox="0 0 24 24" fill="none" xmlns="http://www.w3.org/2000/svg">
<path d="M15.5647 9.15923C15.5649 9.1591 15.5652 9.15894 15.5655 9.15875C15.5678 9.15722 15.571 9.15453 15.5739 9.15034C15.5766 9.1466 15.5801 9.14033 15.5824 9.12973L15.5825 9.1295C15.6671 8.75553 15.7117 8.36547 15.7117 7.96438C15.7117 5.12371 13.4821 2.86272 10.7844 2.86095C8.08669 2.85917 5.85708 5.11723 5.85708 7.9579C5.85708 8.35882 5.9018 8.74902 5.98634 9.12339L15.5647 9.15923ZM15.5647 9.15923C15.5643 9.15906 15.5639 9.15882 15.5634 9.1584C15.5617 9.15716 15.5581 9.1539 15.5543 9.14765C15.5466 9.13486 15.5428 9.11801 15.5473 9.0984L15.5647 9.15923ZM5.89577 7.95792C5.89577 5.21532 8.06094 2.95012 10.7844 2.95192C13.5079 2.95371 15.6731 5.22175 15.6731 7.96436C15.6731 8.35442 15.6296 8.73401 15.5473 9.09837L5.89577 7.95792ZM5.89577 7.95792C5.89577 8.34801 5.93928 8.72766 6.02158 9.0921L5.89577 7.95792ZM11.723 12.6554V13.5769L12.642 13.5109C14.9969 13.3419 16.3676 13.9576 17.1557 14.7529C17.9616 15.5661 18.2925 16.7018 18.2925 17.8106C18.2925 18.5831 18.0202 19.7159 17.5649 20.6216L17.5649 20.6217C17.3973 20.9551 16.9938 21.1891 16.4211 21.1887L11.7496 21.1856C10.7613 21.185 9.79545 20.8653 8.98792 20.2677L8.04352 19.5688C6.78496 18.6374 7.01868 16.6434 8.42272 16.036L8.08199 15.2492L8.42273 16.036L9.41494 15.6067L9.93129 15.3833V14.8205V7.96065C9.93129 7.41308 10.3559 7.01275 10.8271 7.01306C11.2983 7.01337 11.723 7.41425 11.723 7.96183V12.6554ZM6.00547 9.15213C6.00439 9.15294 6.00402 9.15309 6.00287 9.15336L6.02159 9.09213C6.02601 9.11174 6.02225 9.12859 6.01452 9.14138C6.01074 9.14763 6.00713 9.15089 6.00547 9.15213Z" fill="#6365EF" stroke="url(#paint0_linear_709_5099)" stroke-width="1.71429"/>
<defs>
<linearGradient id="paint0_linear_709_5099" x1="7.25238" y1="4.33597" x2="20.2127" y2="15.677" gradientUnits="userSpaceOnUse">
<stop stop-color="white" stop-opacity="0.25"/>
<stop offset="1" stop-color="white" stop-opacity="0"/>
</linearGradient>
</defs>
</svg>
