<svg width="24" height="24" viewBox="0 0 24 24" fill="none" xmlns="http://www.w3.org/2000/svg">
<path d="M19.9997 14.218C19.9997 13.6275 19.5207 13.1622 18.9532 13.1622C18.5806 13.1622 18.2437 13.3591 18.0663 13.6633V13.6275C18.0663 13.0369 17.5873 12.5717 17.0198 12.5717C16.6472 12.5717 16.3103 12.7685 16.1329 13.0727V13.0369C16.1329 12.4464 15.6539 11.9812 15.0864 11.9812C14.7138 11.9812 14.3769 12.178 14.1995 12.4822V8.92114C14.1995 8.6348 14.0931 8.36643 13.898 8.16956C13.7028 7.97271 13.4368 7.86536 13.153 7.86536C12.5676 7.86536 12.1065 8.34856 12.1065 8.92113V15.8464C12.1065 15.9001 12.071 15.9538 12.0177 15.9896C11.9645 16.0075 11.9113 16.0075 11.8581 15.9538L10.7938 14.88C10.4391 14.5222 9.87139 14.4685 9.44575 14.7547C9.19742 14.9157 9.03781 15.1842 8.98459 15.4884C8.94908 15.7926 9.0201 16.0968 9.21522 16.3295L11.8582 19.5506C12.6032 20.4632 13.7207 21 14.8914 21H16.541C17.4634 21 18.3325 20.6421 18.9889 19.9799C19.6451 19.3179 20 18.441 20 17.5104L19.9997 14.218Z" fill="#6365EF"/>
<path d="M10.9178 8.92111C10.9178 7.68634 11.9111 6.68426 13.1351 6.68426C13.7204 6.68426 14.2703 6.91693 14.6961 7.32847C15.1218 7.75798 15.3523 8.31272 15.3523 8.90325V10.12H16.6118C17.1795 10.12 17.6406 9.6548 17.6406 9.08214L17.6405 5.0379C17.6405 4.4652 17.1793 4 16.6117 4H5.0288C4.46112 4 4 4.46523 4 5.0379V9.10003C4 9.67273 4.46115 10.1379 5.0288 10.1379H10.9178L10.9178 8.92111ZM9.65839 6.50525L7.97332 8.33055C7.88461 8.4379 7.74269 8.49158 7.60076 8.49158C7.45884 8.49158 7.33474 8.4379 7.2282 8.33055L6.34131 7.36429C6.14618 7.14959 6.16388 6.82742 6.37682 6.63057C6.58963 6.45157 6.90899 6.45157 7.1041 6.6664L7.61844 7.2391L8.93108 5.80748C9.1262 5.59278 9.44541 5.59278 9.65836 5.77165C9.83579 5.9685 9.85348 6.29054 9.65836 6.50525H9.65839Z" fill="#6365EF"/>
</svg>
