<svg xmlns="http://www.w3.org/2000/svg" width="20.443" height="25.161" viewBox="0 0 20.443 25.161">
  <g id="cv" transform="translate(-4 -1)">
    <path id="Path_158" data-name="Path 158" d="M24.443,3.988A2.987,2.987,0,0,0,21.455,1H6.988A2.987,2.987,0,0,0,4,3.988V23.173a2.987,2.987,0,0,0,2.988,2.988H21.455a2.987,2.987,0,0,0,2.988-2.988ZM22.87,23.173a1.409,1.409,0,0,1-1.415,1.415H6.988a1.409,1.409,0,0,1-1.415-1.415V3.988A1.409,1.409,0,0,1,6.988,2.573H21.455A1.409,1.409,0,0,1,22.87,3.988Z" fill="#959595"/>
    <path id="Path_159" data-name="Path 159" d="M10.686,16.2h9.278a.715.715,0,0,0,.629-.315.612.612,0,0,0,.157-.629,5.4,5.4,0,0,0-3.066-4.089,3.2,3.2,0,0,0,.786-2.123,3.145,3.145,0,0,0-6.29,0,3.53,3.53,0,0,0,.786,2.123A5.49,5.49,0,0,0,9.9,15.257a.847.847,0,0,0,.157.629.715.715,0,0,0,.629.315Zm3.066-7.076A1.573,1.573,0,1,1,15.325,10.7,1.577,1.577,0,0,1,13.753,9.124Zm1.573,3.145a3.973,3.973,0,0,1,3.617,2.359H11.708A3.973,3.973,0,0,1,15.325,12.269Z" transform="translate(-1.261 -1.047)" fill="#959595"/>
    <path id="Path_160" data-name="Path 160" d="M21.367,22H8.786a.786.786,0,1,0,0,1.573h12.58a.786.786,0,0,0,0-1.573Z" transform="translate(-0.855 -4.488)" fill="#959595"/>
    <path id="Path_161" data-name="Path 161" d="M21.367,26H8.786a.786.786,0,0,0,0,1.573h12.58a.786.786,0,0,0,0-1.573Z" transform="translate(-0.855 -5.343)" fill="#959595"/>
  </g>
</svg>
