<svg width="24" height="24" viewBox="0 0 24 24" fill="none" xmlns="http://www.w3.org/2000/svg">
<path fill-rule="evenodd" clip-rule="evenodd" d="M1.75285 5.95849C1.75285 3.66535 3.55786 1.80759 5.78442 1.80906C8.01099 1.81052 9.81598 3.67066 9.81598 5.96379C9.81598 6.28998 9.77964 6.60625 9.71125 6.90898C9.60159 7.39447 9.89486 7.87982 10.3663 7.99307C10.8378 8.10633 11.3088 7.80459 11.4185 7.31912C11.517 6.88325 11.5688 6.42978 11.5688 5.96495C11.5688 2.67481 8.97907 0.00590731 5.78442 0.00380555C2.58978 0.00170381 0 2.6672 0 5.95733C0 6.42217 0.0518705 6.87571 0.150325 7.31171C0.259997 7.79732 0.73108 8.09968 1.20253 7.98706C1.67398 7.87442 1.96726 7.38944 1.8576 6.90382C1.78922 6.60099 1.75285 6.28468 1.75285 5.95849ZM7.58007 5.96239V10.656C12.6453 10.2924 14.1496 13.2846 14.1496 15.8112C14.1496 16.7349 13.8375 17.9987 13.3308 19.007C12.9721 19.7207 12.2018 20.0463 11.4211 20.0458L6.74957 20.0427C5.57591 20.042 4.43182 19.6621 3.47841 18.9566L2.534 18.2577C0.753447 16.94 1.06163 14.1233 3.08199 13.2492L4.07421 12.82V5.96009C4.07421 4.96304 4.85902 4.15528 5.82715 4.15592C6.79525 4.15655 7.58007 4.96535 7.58007 5.96239Z" fill="#6365EF"/>
</svg>
