<svg xmlns="http://www.w3.org/2000/svg" width="17.382" height="17.383" viewBox="0 0 17.382 17.383">
  <g id="layer1" transform="translate(0 0)">
    <path id="path1491" d="M-88.062,93.724a.724.724,0,0,0-.724.724v5.794a.724.724,0,0,0,.724.724h5.794a.724.724,0,0,0,.724-.724V94.449a.724.724,0,0,0-.724-.724Zm.724,1.449h4.346v4.346h-4.346Z" transform="translate(88.787 -83.585)" fill="#1da1f1"/>
    <path id="path1493" d="M-84.623,93.724a.724.724,0,0,0-.724.724v5.794a.724.724,0,0,0,.724.724h5.794a.724.724,0,0,0,.724-.724V94.449a.724.724,0,0,0-.724-.724Zm.724,1.449h4.346v4.346H-83.9Z" transform="translate(94.763 -83.585)" fill="#1da1f1"/>
    <path id="path1495" d="M-81.277,90.02a.724.724,0,0,0-.5.212L-85.4,93.854a.724.724,0,0,0,0,1.024l3.621,3.621a.724.724,0,0,0,1.024,0l3.621-3.621a.724.724,0,0,0,0-1.024l-3.621-3.621A.724.724,0,0,0-81.277,90.02Zm.011,1.748,2.6,2.6-2.6,2.6-2.6-2.6Z" transform="translate(94.303 -90.02)" fill="#1da1f1"/>
    <path id="path1497" d="M-88.062,90.285a.724.724,0,0,0-.724.724V96.8a.724.724,0,0,0,.724.724h5.794a.724.724,0,0,0,.724-.724V91.009a.724.724,0,0,0-.724-.724Zm.724,1.449h4.346v4.346h-4.346Z" transform="translate(88.787 -89.561)" fill="#1da1f1"/>
  </g>
</svg>
