<svg width="67" height="76" viewBox="0 0 67 76" fill="none" xmlns="http://www.w3.org/2000/svg">
<path fill-rule="evenodd" clip-rule="evenodd" d="M67 21.3643V66.4668C67 68.9851 65.9916 71.4002 64.1966 73.1809C62.4016 74.9616 59.9671 75.962 57.4286 75.962H52.6429V71.2144H57.4286C58.6978 71.2144 59.9151 70.7142 60.8126 69.8238C61.7101 68.9335 62.2143 67.7259 62.2143 66.4668V21.3643H52.6429C50.739 21.3643 48.9131 20.614 47.5668 19.2785C46.2206 17.943 45.4643 16.1316 45.4643 14.2429V4.74763H19.1429C17.8736 4.74763 16.6563 5.24782 15.7588 6.13817C14.8614 7.02853 14.3571 8.2361 14.3571 9.49525V52.2239H9.57143V9.49525C9.57143 6.97695 10.5798 4.5618 12.3748 2.7811C14.1698 1.00039 16.6044 0 19.1429 0L45.4643 0L67 21.3643Z" fill="#A5A6EE"/>
<path d="M29 50C28.175 50 27.4688 49.7063 26.8813 49.1188C26.2938 48.5312 26 47.825 26 47V42.5H29V47H47V42.5H50V47C50 47.825 49.7063 48.5312 49.1188 49.1188C48.5312 49.7063 47.825 50 47 50H29ZM36.5 44V31.775L32.6 35.675L30.5 33.5L38 26L45.5 33.5L43.4 35.675L39.5 31.775V44H36.5Z" fill="#A5A6EE"/>
</svg>
