<svg width="56" height="56" viewBox="0 0 56 56" fill="none" xmlns="http://www.w3.org/2000/svg">
<rect x="4" y="4" width="48" height="48" rx="24" fill="#A5A6EE"/>
<mask id="mask0_2207_15812" style="mask-type:alpha" maskUnits="userSpaceOnUse" x="16" y="16" width="24" height="24">
<rect x="16" y="16" width="24" height="24" fill="#D9D9D9"/>
</mask>
<g mask="url(#mask0_2207_15812)">
<path d="M22 36C21.45 36 20.9792 35.8042 20.5875 35.4125C20.1958 35.0208 20 34.55 20 34V31H22V34H34V31H36V34C36 34.55 35.8042 35.0208 35.4125 35.4125C35.0208 35.8042 34.55 36 34 36H22ZM27 32V23.85L24.4 26.45L23 25L28 20L33 25L31.6 26.45L29 23.85V32H27Z" fill="white"/>
</g>
<rect x="4" y="4" width="48" height="48" rx="24" stroke="#6365EF" stroke-width="8"/>
</svg>
