<svg xmlns="http://www.w3.org/2000/svg" width="16.118" height="16.932" viewBox="0 0 16.118 16.932">
  <g id="Layer_10" data-name="Layer 10" transform="translate(0 0)">
    <path id="Path_60" data-name="Path 60" d="M18.523,13.872a.387.387,0,0,0-.491,0,7.025,7.025,0,0,1-3.843,1.1,7.2,7.2,0,0,1-5.027-12.3.4.4,0,0,0,.064-.483A.4.4,0,0,0,8.775,2a8.629,8.629,0,0,0,2.264,16.919,8.54,8.54,0,0,0,7.573-4.576.4.4,0,0,0-.089-.467ZM11.039,18.11A7.823,7.823,0,0,1,7.6,3.3a8.008,8.008,0,0,0,6.59,12.472,7.831,7.831,0,0,0,2.9-.548,7.726,7.726,0,0,1-6.05,2.884Z" transform="translate(-2.535 -1.983)" fill="#707070"/>
  </g>
</svg>
