<svg xmlns="http://www.w3.org/2000/svg" width="23.067" height="23.067" viewBox="0 0 23.067 23.067">
  <g id="sun" transform="translate(0 0)">
    <path id="Path_61" data-name="Path 61" d="M110.951,103.706a7.355,7.355,0,1,0-1.617,4.594,7.421,7.421,0,0,0,1.617-4.594Z" transform="translate(-92.068 -92.172)" fill="#1da1f1"/>
    <path id="Path_62" data-name="Path 62" d="M154.448,146.607c0-.911-1.437-.473-1.907-.288a4.389,4.389,0,0,0-1.953,1.576,4.269,4.269,0,0,0-.566,1.129,2.735,2.735,0,0,0-.17,1.172.555.555,0,0,0,.784.408c.35-.172.285-.533.338-.854a3.27,3.27,0,0,1,1.317-2.047,2.855,2.855,0,0,1,1.182-.511,3.147,3.147,0,0,0,.631-.076A.554.554,0,0,0,154.448,146.607Z" transform="translate(-142.705 -139.127)" fill="#1e1f23"/>
    <path id="Path_63" data-name="Path 63" d="M220.549,23.185a.549.549,0,0,0,.549-.549V20.549a.549.549,0,0,0-1.1,0v2.087A.549.549,0,0,0,220.549,23.185Z" transform="translate(-209.016 -20)" fill="#1da1f1"/>
    <path id="Path_64" data-name="Path 64" d="M220.549,382a.549.549,0,0,0-.549.549v2.087a.549.549,0,0,0,1.1,0v-2.087A.549.549,0,0,0,220.549,382Z" transform="translate(-209.016 -362.118)" fill="#1da1f1"/>
    <path id="Path_65" data-name="Path 65" d="M335.105,81.192a.548.548,0,0,0,.388-.161l1.479-1.479a.549.549,0,0,0-.777-.777l-1.479,1.479A.554.554,0,0,0,335.105,81.192Z" transform="translate(-317.284 -75.397)" fill="#1da1f1"/>
    <path id="Path_66" data-name="Path 66" d="M80.248,334.683l-1.479,1.48a.549.549,0,1,0,.777.777l1.479-1.479a.549.549,0,0,0-.777-.777Z" transform="translate(-75.391 -317.25)" fill="#1da1f1"/>
    <path id="Path_67" data-name="Path 67" d="M382.549,221.1h2.087a.549.549,0,0,0,0-1.1h-2.087a.549.549,0,1,0,0,1.1Z" transform="translate(-362.118 -209.016)" fill="#1da1f1"/>
    <path id="Path_68" data-name="Path 68" d="M22.636,220H20.549a.549.549,0,0,0,0,1.1h2.087a.549.549,0,0,0,0-1.1Z" transform="translate(-20 -209.016)" fill="#1da1f1"/>
    <path id="Path_69" data-name="Path 69" d="M336.937,336.161l-1.48-1.479a.549.549,0,0,0-.777.777l1.48,1.479a.549.549,0,0,0,.777-.777Z" transform="translate(-317.247 -317.249)" fill="#1da1f1"/>
    <path id="Path_70" data-name="Path 70" d="M80.254,81.032a.549.549,0,1,0,.777-.777l-1.479-1.479a.549.549,0,0,0-.777.777Z" transform="translate(-75.397 -75.398)" fill="#1da1f1"/>
  </g>
</svg>
