<svg width="117" height="46" viewBox="0 0 117 46" fill="none" xmlns="http://www.w3.org/2000/svg">
<path d="M1 23.2214L4.19444 26.251C7.38889 29.2806 13.7778 35.3399 20.1667 36.478C26.5556 37.6162 32.9444 33.8332 39.3333 32.9828C45.7222 32.1324 52.1111 34.2144 58.5 29.2275C64.8889 24.2405 71.2778 12.1844 77.6667 7.02274C84.0556 1.86108 90.4444 3.5938 96.8333 3.73907C103.222 3.88435 109.611 2.44217 112.806 1.72109L116 1" stroke="#6365EF"/>
<path d="M4.19444 26.251L1 23.2214V45.4138H116V1L112.806 1.72109C109.611 2.44217 103.222 3.88435 96.8333 3.73907C90.4444 3.5938 84.0556 1.86108 77.6667 7.02274C71.2778 12.1844 64.8889 24.2405 58.5 29.2275C52.1111 34.2144 45.7222 32.1324 39.3333 32.9828C32.9444 33.8332 26.5556 37.6162 20.1667 36.478C13.7778 35.3399 7.38889 29.2806 4.19444 26.251Z" fill="url(#paint0_linear_1616_14049)"/>
<defs>
<linearGradient id="paint0_linear_1616_14049" x1="52.5517" y1="13.6897" x2="58.5" y2="45.4138" gradientUnits="userSpaceOnUse">
<stop stop-color="#6365EF" stop-opacity="0.16"/>
<stop offset="1" stop-color="#D9D9D9" stop-opacity="0"/>
</linearGradient>
</defs>
</svg>
