<svg width="117" height="48" viewBox="0 0 117 48" fill="none" xmlns="http://www.w3.org/2000/svg">
<path d="M1 18.1617L4.83333 22.6657C8.66667 27.1696 16.3333 36.1775 24 38.4634C31.6667 40.7494 39.3333 36.3133 47 35.8829C54.6667 35.4525 62.3333 39.0278 70 32.947C77.6667 26.8662 85.3333 11.1294 93 4.81006C100.667 -1.5093 108.333 1.58878 112.167 3.13781L116 4.68685" stroke="#6365EF"/>
<path d="M4.83333 22.6651L1 18.1612V47.9852H116V4.80967L115.853 4.75029C111.881 3.14347 100.571 -1.43111 93 4.8095C85.3333 11.1289 77.6667 26.8657 70 32.9464C62.3333 39.0272 54.6667 35.4519 47 35.8823C39.3333 36.3127 31.6667 40.7488 24 38.4629C16.3333 36.177 8.66667 27.1691 4.83333 22.6651Z" fill="url(#paint0_linear_1616_14034)"/>
<defs>
<linearGradient id="paint0_linear_1616_14034" x1="-0.314286" y1="17.4282" x2="1" y2="90.371" gradientUnits="userSpaceOnUse">
<stop stop-color="#6365EF" stop-opacity="0.1"/>
<stop offset="1" stop-color="#D9D9D9" stop-opacity="0"/>
</linearGradient>
</defs>
</svg>
