<svg width="119" height="47" viewBox="0 0 119 47" fill="none" xmlns="http://www.w3.org/2000/svg">
<path d="M1 23.6079L4.25 26.6902C7.5 29.7725 14 35.9371 20.5 37.095C27 38.253 33.5 34.4043 40 33.539C46.5 32.6738 53 34.7921 59.5 29.7184C66 24.6446 72.5 12.3789 79 7.12748C85.5 1.87605 92 3.63891 98.5 3.78671C105 3.93451 111.5 2.46725 114.75 1.73363L118 1" stroke="#6365EF"/>
<path d="M4.25 26.6902L1 23.6079V46.1862H118V1L114.75 1.73363C111.5 2.46725 105 3.93451 98.5 3.78671C92 3.63891 85.5 1.87605 79 7.12748C72.5 12.3789 66 24.6446 59.5 29.7184C53 34.7921 46.5 32.6738 40 33.539C33.5 34.4043 27 38.253 20.5 37.095C14 35.9371 7.5 29.7725 4.25 26.6902Z" fill="url(#paint0_linear_1616_14062)"/>
<defs>
<linearGradient id="paint0_linear_1616_14062" x1="53.4483" y1="13.9103" x2="59.5" y2="46.1862" gradientUnits="userSpaceOnUse">
<stop stop-color="#6365EF" stop-opacity="0.16"/>
<stop offset="1" stop-color="#D9D9D9" stop-opacity="0"/>
</linearGradient>
</defs>
</svg>
