<svg width="28" height="28" viewBox="0 0 28 28" fill="none" xmlns="http://www.w3.org/2000/svg">
<mask id="mask0_1616_14024" style="mask-type:alpha" maskUnits="userSpaceOnUse" x="0" y="0" width="28" height="28">
<rect width="28" height="28" fill="#D9D9D9"/>
</mask>
<g mask="url(#mask0_1616_14024)">
<path d="M1.16602 23.3337V20.067C1.16602 19.4059 1.33635 18.798 1.67702 18.2435C2.0169 17.6897 2.46879 17.267 3.03268 16.9753C4.23824 16.3725 5.46324 15.9203 6.70768 15.6185C7.95213 15.3175 9.21601 15.167 10.4993 15.167C11.7827 15.167 13.0466 15.3175 14.291 15.6185C15.5355 15.9203 16.7605 16.3725 17.966 16.9753C18.5299 17.267 18.9818 17.6897 19.3217 18.2435C19.6623 18.798 19.8327 19.4059 19.8327 20.067V23.3337H1.16602ZM22.166 23.3337V19.8337C22.166 18.9781 21.928 18.1564 21.452 17.3685C20.9752 16.5814 20.2993 15.9059 19.4243 15.342C20.416 15.4587 21.3493 15.6578 22.2243 15.9393C23.0993 16.2217 23.916 16.567 24.6743 16.9753C25.3743 17.3642 25.9091 17.7967 26.2785 18.2727C26.648 18.7494 26.8327 19.2698 26.8327 19.8337V23.3337H22.166ZM10.4993 14.0003C9.21601 14.0003 8.1174 13.5434 7.20352 12.6295C6.28963 11.7156 5.83268 10.617 5.83268 9.33366C5.83268 8.05033 6.28963 6.95171 7.20352 6.03783C8.1174 5.12394 9.21601 4.66699 10.4993 4.66699C11.7827 4.66699 12.8813 5.12394 13.7952 6.03783C14.7091 6.95171 15.166 8.05033 15.166 9.33366C15.166 10.617 14.7091 11.7156 13.7952 12.6295C12.8813 13.5434 11.7827 14.0003 10.4993 14.0003ZM22.166 9.33366C22.166 10.617 21.7091 11.7156 20.7952 12.6295C19.8813 13.5434 18.7827 14.0003 17.4993 14.0003C17.2855 14.0003 17.0132 13.9762 16.6827 13.928C16.3521 13.879 16.0799 13.8253 15.866 13.767C16.391 13.1448 16.7943 12.4545 17.0758 11.6962C17.3582 10.9378 17.4993 10.1503 17.4993 9.33366C17.4993 8.51699 17.3582 7.72949 17.0758 6.97116C16.7943 6.21283 16.391 5.52255 15.866 4.90033C16.1382 4.8031 16.4105 4.73971 16.6827 4.71016C16.9549 4.68138 17.2271 4.66699 17.4993 4.66699C18.7827 4.66699 19.8813 5.12394 20.7952 6.03783C21.7091 6.95171 22.166 8.05033 22.166 9.33366ZM3.49935 21.0003H17.4993V20.067C17.4993 19.8531 17.4461 19.6587 17.3395 19.4837C17.2322 19.3087 17.091 19.1725 16.916 19.0753C15.866 18.5503 14.8063 18.1564 13.7368 17.8935C12.6674 17.6314 11.5882 17.5003 10.4993 17.5003C9.41046 17.5003 8.33129 17.6314 7.26185 17.8935C6.1924 18.1564 5.13268 18.5503 4.08268 19.0753C3.90768 19.1725 3.7669 19.3087 3.66035 19.4837C3.55302 19.6587 3.49935 19.8531 3.49935 20.067V21.0003ZM10.4993 11.667C11.141 11.667 11.6905 11.4383 12.1478 10.981C12.6044 10.5244 12.8327 9.97533 12.8327 9.33366C12.8327 8.69199 12.6044 8.14288 12.1478 7.68633C11.6905 7.22899 11.141 7.00033 10.4993 7.00033C9.85768 7.00033 9.30857 7.22899 8.85202 7.68633C8.39468 8.14288 8.16602 8.69199 8.16602 9.33366C8.16602 9.97533 8.39468 10.5244 8.85202 10.981C9.30857 11.4383 9.85768 11.667 10.4993 11.667Z" fill="#9A9BF6"/>
</g>
</svg>
