<svg width="19" height="22" viewBox="0 0 19 22" fill="none" xmlns="http://www.w3.org/2000/svg">
<path d="M8.90275 4.13576C8.90275 4.23976 8.88178 4.34275 8.84103 4.43884C8.80029 4.53493 8.74057 4.62224 8.66529 4.69579C8.59 4.76933 8.50063 4.82767 8.40226 4.86747C8.3039 4.90727 8.19847 4.92776 8.092 4.92776C7.98553 4.92776 7.8801 4.90727 7.78174 4.86747C7.68337 4.82767 7.594 4.76933 7.51871 4.69579C7.44343 4.62224 7.38371 4.53493 7.34296 4.43884C7.30222 4.34275 7.28125 4.23976 7.28125 4.13576C7.28125 3.9257 7.36667 3.72425 7.51871 3.57572C7.67076 3.42719 7.87698 3.34375 8.092 3.34375C8.30702 3.34375 8.51324 3.42719 8.66529 3.57572C8.81733 3.72425 8.90275 3.9257 8.90275 4.13576ZM11.336 4.92776C11.551 4.92776 11.7572 4.84432 11.9092 4.69579C12.0613 4.54726 12.1467 4.34581 12.1467 4.13576C12.1467 3.9257 12.0613 3.72425 11.9092 3.57572C11.7572 3.42719 11.551 3.34375 11.336 3.34375C11.1209 3.34375 10.9147 3.42719 10.7627 3.57572C10.6106 3.72425 10.5252 3.9257 10.5252 4.13576C10.5252 4.34581 10.6106 4.54726 10.7627 4.69579C10.9147 4.84432 11.1209 4.92776 11.336 4.92776Z" fill="#151616"/>
<path fill-rule="evenodd" clip-rule="evenodd" d="M4.33959 0.205809C4.40634 0.140562 4.4856 0.0888033 4.57283 0.0534897C4.66006 0.0181761 4.75356 0 4.84799 0C4.94242 0 5.03592 0.0181761 5.12315 0.0534897C5.21038 0.0888033 5.28964 0.140562 5.35639 0.205809L6.53322 1.3545C7.46483 0.811892 8.52963 0.526207 9.61426 0.527854H9.81264C10.9387 0.527854 11.9919 0.829303 12.8937 1.3545L14.0705 0.205809C14.2068 0.0817843 14.387 0.0142642 14.5732 0.0174736C14.7594 0.020683 14.937 0.0943713 15.0687 0.223014C15.2004 0.351657 15.2759 0.52521 15.2791 0.70711C15.2824 0.889011 15.2133 1.06506 15.0863 1.19816L14.0408 2.22046C15.0654 3.20395 15.6954 4.51354 15.8166 5.91181C16.1278 5.81047 16.4592 5.78285 16.7835 5.83121C17.1078 5.87958 17.4157 6.00255 17.6818 6.18999C17.9479 6.37743 18.1646 6.62396 18.314 6.90927C18.4634 7.19458 18.5413 7.51049 18.5411 7.83097V12.5839C18.5413 12.9025 18.4645 13.2167 18.3168 13.5007C18.1691 13.7848 17.9548 14.0308 17.6914 14.2186C17.428 14.4064 17.1228 14.5307 16.8008 14.5815C16.4789 14.6322 16.1492 14.6079 15.8386 14.5106V16.2566C15.8386 17.1113 15.4122 17.8677 14.7567 18.3367V19.7129C14.7567 20.3192 14.5101 20.9007 14.0712 21.3295C13.6324 21.7582 13.0371 21.9991 12.4164 21.9991C11.7958 21.9991 11.2005 21.7582 10.7616 21.3295C10.3227 20.9007 10.0762 20.3192 10.0762 19.7129V18.831H9.35072V19.7139C9.35072 20.3202 9.10416 20.9017 8.66528 21.3304C8.22639 21.7591 7.63114 22 7.01047 22C6.3898 22 5.79454 21.7591 5.35566 21.3304C4.91678 20.9017 4.67022 20.3202 4.67022 19.7139V18.3367C4.33488 18.0978 4.06214 17.7849 3.87427 17.4233C3.68639 17.0618 3.58872 16.662 3.58922 16.2566V14.5106C3.27868 14.6079 2.94899 14.6322 2.62701 14.5815C2.30504 14.5307 1.9999 14.4064 1.73646 14.2186C1.47301 14.0308 1.25872 13.7848 1.11106 13.5007C0.96339 13.2167 0.886522 12.9025 0.886719 12.5839V7.83097C0.886644 7.5106 0.964489 7.19481 1.11384 6.90959C1.26319 6.62438 1.47977 6.37791 1.74575 6.1905C2.01172 6.00308 2.31947 5.88008 2.64364 5.83163C2.96781 5.78317 3.29913 5.81065 3.6103 5.91181C3.73153 4.51356 4.36152 3.204 5.38609 2.22046L4.33959 1.19816C4.205 1.06651 4.12939 0.888048 4.12939 0.701983C4.12939 0.515917 4.205 0.337459 4.33959 0.205809ZM5.26439 7.21309C5.20118 7.21358 5.14073 7.23846 5.09621 7.2823C5.0517 7.32614 5.02672 7.38539 5.02672 7.44713V16.2566C5.02672 16.5661 5.15227 16.8631 5.37589 17.0824C5.5995 17.3017 5.90297 17.4255 6.21984 17.4268H13.2071C13.5239 17.4255 13.8274 17.3017 14.051 17.0824C14.2746 16.8631 14.4002 16.5661 14.4002 16.2566V7.44713C14.4002 7.38539 14.3752 7.32614 14.3307 7.2823C14.2862 7.23846 14.2257 7.21358 14.1625 7.21309H5.26439ZM14.1644 5.80883H14.359C14.2086 4.73515 13.6653 3.75099 12.8295 3.03846C11.9937 2.32593 10.922 1.93324 9.81264 1.93305H9.61426C8.50494 1.93324 7.43322 2.32593 6.59741 3.03846C5.7616 3.75099 5.21826 4.73515 5.06793 5.80883H14.1606H14.1644ZM11.5137 19.7139V18.831H13.3192V19.7139C13.3192 19.8297 13.2958 19.9443 13.2505 20.0513C13.2051 20.1583 13.1386 20.2555 13.0548 20.3374C12.9709 20.4193 12.8714 20.4843 12.7619 20.5286C12.6524 20.5729 12.535 20.5957 12.4164 20.5957C12.2979 20.5957 12.1805 20.5729 12.071 20.5286C11.9614 20.4843 11.8619 20.4193 11.7781 20.3374C11.6943 20.2555 11.6278 20.1583 11.5824 20.0513C11.537 19.9443 11.5137 19.8297 11.5137 19.7139ZM6.21793 18.831H7.91322V19.7139C7.91322 19.9477 7.81811 20.1721 7.64881 20.3374C7.47951 20.5028 7.24989 20.5957 7.01047 20.5957C6.77104 20.5957 6.54143 20.5028 6.37213 20.3374C6.20283 20.1721 6.10772 19.9477 6.10772 19.7139V18.831H6.21793ZM16.4711 13.2027C16.3037 13.2027 16.1431 13.1379 16.0246 13.0224C15.906 12.907 15.8391 12.7503 15.8386 12.5867V7.82816C15.839 7.66429 15.906 7.50728 16.0249 7.39167C16.0838 7.33442 16.1536 7.28906 16.2304 7.25818C16.3072 7.2273 16.3895 7.2115 16.4726 7.21169C16.5556 7.21187 16.6378 7.22804 16.7145 7.25926C16.7912 7.29048 16.8608 7.33615 16.9194 7.39365C16.978 7.45116 17.0244 7.51937 17.056 7.59441C17.0877 7.66944 17.1038 7.74983 17.1036 7.83097V12.5839C17.1036 12.7478 17.037 12.905 16.9184 13.0208C16.7998 13.1367 16.6389 13.2027 16.4711 13.2027ZM3.58826 7.82629C3.58775 7.66242 3.52063 7.50545 3.40165 7.38993C3.28267 7.27441 3.12159 7.20979 2.95384 7.21028C2.78609 7.21078 2.62542 7.27635 2.50716 7.39258C2.3889 7.5088 2.32275 7.66616 2.32326 7.83003V12.583C2.32263 12.7469 2.38865 12.9043 2.50682 13.0206C2.62499 13.1369 2.78562 13.2026 2.95336 13.2032C3.12111 13.2038 3.28225 13.1393 3.40131 13.0239C3.52038 12.9085 3.58763 12.7516 3.58826 12.5877V7.82629Z" fill="#151616"/>
</svg>
