<svg width="19" height="22" viewBox="0 0 19 22" fill="none" xmlns="http://www.w3.org/2000/svg">
<path d="M15.4992 11.6262C15.4886 9.82294 16.3056 8.46385 17.9556 7.46173C17.0328 6.13967 15.6367 5.41253 13.7963 5.27239C12.0539 5.1349 10.1474 6.28774 9.44939 6.28774C8.71168 6.28774 7.02473 5.31999 5.69738 5.31999C2.95806 5.36229 0.046875 7.50403 0.046875 11.8616C0.046875 13.1492 0.282202 14.4792 0.752857 15.8489C1.38216 17.6522 3.65082 22.0705 6.01732 21.9991C7.25477 21.9701 8.12997 21.1213 9.74025 21.1213C11.3029 21.1213 12.112 21.9991 13.4923 21.9991C15.8799 21.9648 17.9318 17.9483 18.5293 16.1398C15.3273 14.63 15.4992 11.7188 15.4992 11.6262ZM15.2189 18.6861C14.8408 19.2122 14.46 19.6274 14.111 19.8944C13.8334 20.1059 13.6192 20.1959 13.4764 20.2011C13.2384 20.1985 13.0084 20.1403 12.5589 19.9685C12.5272 19.9552 12.4928 19.942 12.4478 19.9261L12.3315 19.8812C11.8714 19.704 11.5964 19.6089 11.2448 19.5163C10.7529 19.3894 10.2638 19.3206 9.74025 19.3206C9.20613 19.3206 8.70375 19.3867 8.20401 19.511C7.83648 19.6036 7.52711 19.7067 7.07497 19.8759C7.05646 19.8838 6.86079 19.9579 6.80527 19.979C6.71272 20.0134 6.64133 20.0398 6.57523 20.0636C6.30024 20.1588 6.12573 20.1985 5.96972 20.2011C5.95121 20.2011 5.93535 20.1985 5.92213 20.1958C5.89304 20.1906 5.85602 20.18 5.81372 20.1615C5.69473 20.1139 5.55195 20.0266 5.39066 19.9024C5.02048 19.6141 4.61328 19.162 4.19816 18.5829C3.47102 17.5623 2.78355 16.2085 2.45303 15.2593C2.04584 14.0747 1.84488 12.9404 1.84488 11.8589C1.84488 10.2671 2.31554 9.05614 3.12464 8.23381C3.82005 7.53048 4.75607 7.1365 5.7106 7.11535C5.8666 7.11799 6.094 7.15501 6.38221 7.23433C6.6096 7.29515 6.85815 7.37712 7.19395 7.4961C7.29443 7.53312 7.64081 7.65739 7.68312 7.67326C7.88671 7.7473 8.04007 7.80018 8.19079 7.84777C8.67202 8.00113 9.04484 8.08574 9.44939 8.08574C9.85923 8.08574 10.2109 7.99849 10.7106 7.82662C10.8984 7.76316 11.5806 7.50932 11.7022 7.46702C12.3791 7.2264 12.8788 7.09684 13.3098 7.06511C13.4367 7.05453 13.5504 7.05453 13.6588 7.06247C14.2591 7.11006 14.772 7.22905 15.2083 7.42736C14.2141 8.57491 13.7012 9.97894 13.7038 11.6157C13.6959 12.0043 13.7276 12.4538 13.8386 12.9853C14.0079 13.7918 14.3305 14.5903 14.8408 15.3386C15.2295 15.9071 15.7107 16.42 16.2871 16.8669C15.983 17.4936 15.6102 18.1414 15.2189 18.6861ZM12.7202 3.56164C14.0608 1.96988 13.9391 0.520893 13.8995 0C12.7149 0.0687473 11.3452 0.806459 10.5652 1.71339C9.70587 2.68643 9.20085 3.88951 9.30925 5.24595C10.589 5.34378 11.7577 4.68539 12.7202 3.56164Z" fill="#151616"/>
</svg>
