<svg width="11" height="18" viewBox="0 0 11 18" fill="none" xmlns="http://www.w3.org/2000/svg">
<path fill-rule="evenodd" clip-rule="evenodd" d="M2.2 1.6875H8.8C8.94587 1.6875 9.08576 1.74676 9.18891 1.85225C9.29205 1.95774 9.35 2.10082 9.35 2.25V15.75C9.35 15.8992 9.29205 16.0423 9.18891 16.1477C9.08576 16.2532 8.94587 16.3125 8.8 16.3125H2.2C2.05413 16.3125 1.91424 16.2532 1.81109 16.1477C1.70795 16.0423 1.65 15.8992 1.65 15.75V2.25C1.65 2.10082 1.70795 1.95774 1.81109 1.85225C1.91424 1.74676 2.05413 1.6875 2.2 1.6875ZM0 2.25C0 1.65326 0.231785 1.08097 0.644365 0.65901C1.05694 0.237053 1.61652 0 2.2 0L8.8 0C9.38348 0 9.94306 0.237053 10.3556 0.65901C10.7682 1.08097 11 1.65326 11 2.25V15.75C11 16.3467 10.7682 16.919 10.3556 17.341C9.94306 17.7629 9.38348 18 8.8 18H2.2C1.61652 18 1.05694 17.7629 0.644365 17.341C0.231785 16.919 0 16.3467 0 15.75V2.25ZM5.5 14.625C5.79174 14.625 6.07153 14.5065 6.27782 14.2955C6.48411 14.0845 6.6 13.7984 6.6 13.5C6.6 13.2016 6.48411 12.9155 6.27782 12.7045C6.07153 12.4935 5.79174 12.375 5.5 12.375C5.20826 12.375 4.92847 12.4935 4.72218 12.7045C4.51589 12.9155 4.4 13.2016 4.4 13.5C4.4 13.7984 4.51589 14.0845 4.72218 14.2955C4.92847 14.5065 5.20826 14.625 5.5 14.625Z" fill="#151616"/>
</svg>
