<svg width="18" height="18" viewBox="0 0 18 18" fill="none" xmlns="http://www.w3.org/2000/svg">
<path d="M2 18C1.45 18 0.979333 17.8043 0.588 17.413C0.196667 17.0217 0.000666667 16.5507 0 16V3.50001C0 3.26667 0.0376666 3.04567 0.113 2.83701C0.188333 2.62834 0.300667 2.43267 0.45 2.25001L1.85 0.550007C2 0.366674 2.171 0.229007 2.363 0.137007C2.555 0.0450073 2.76733 -0.000659472 3 7.19423e-06H15C15.2333 7.19423e-06 15.446 0.0460072 15.638 0.138007C15.83 0.230007 16.0007 0.367341 16.15 0.550007L17.55 2.25001C17.7 2.43334 17.8127 2.62934 17.888 2.83801C17.9633 3.04667 18.0007 3.26734 18 3.50001V16C18 16.55 17.8043 17.021 17.413 17.413C17.0217 17.805 16.5507 18.0007 16 18H2ZM2.4 3.00001H15.6L14.75 2.00001H3.25L2.4 3.00001ZM2 16H16V5.00001H2V16ZM12.2 10.5L10.825 11.875C10.625 12.075 10.525 12.3167 10.525 12.6C10.525 12.8833 10.625 13.125 10.825 13.325C11.025 13.525 11.2667 13.625 11.55 13.625C11.8333 13.625 12.075 13.525 12.275 13.325L14.4 11.2C14.6 11 14.7 10.7667 14.7 10.5C14.7 10.2333 14.6 10 14.4 9.80001L12.275 7.67501C12.075 7.47501 11.8333 7.37501 11.55 7.37501C11.2667 7.37501 11.025 7.47501 10.825 7.67501C10.625 7.87501 10.525 8.11667 10.525 8.40001C10.525 8.68334 10.625 8.92501 10.825 9.12501L12.2 10.5ZM5.85 10.5L7.225 9.12501C7.425 8.92501 7.525 8.68334 7.525 8.40001C7.525 8.11667 7.425 7.87501 7.225 7.67501C7.025 7.47501 6.78333 7.37501 6.5 7.37501C6.21667 7.37501 5.975 7.47501 5.775 7.67501L3.65 9.80001C3.45 10 3.35 10.2333 3.35 10.5C3.35 10.7667 3.45 11 3.65 11.2L5.775 13.325C5.975 13.525 6.21667 13.625 6.5 13.625C6.78333 13.625 7.025 13.525 7.225 13.325C7.425 13.125 7.525 12.8833 7.525 12.6C7.525 12.3167 7.425 12.075 7.225 11.875L5.85 10.5Z" fill="#151616"/>
</svg>
