<svg width="25" height="24" viewBox="0 0 25 24" fill="none" xmlns="http://www.w3.org/2000/svg">
<g clip-path="url(#clip0_2778_8187)">
<path d="M15.5139 23.9792C15.1559 23.9792 14.8399 23.7222 14.7759 23.3582C14.7049 22.9502 14.9779 22.5612 15.3859 22.4902L21.8149 21.3712C21.0459 16.1882 19.7929 7.74724 19.4989 5.77924C19.2259 5.76024 18.7909 5.72824 18.0929 5.67624C17.9369 5.66424 17.7889 5.60424 17.6689 5.50424L15.9139 4.04124C15.5959 3.77524 15.5529 3.30324 15.8179 2.98424C16.0839 2.66724 16.5559 2.62324 16.8749 2.88824L18.4449 4.19724C18.9029 4.23124 19.8659 4.30224 19.9949 4.30724C20.4409 4.30724 20.8459 4.66024 20.9179 5.12524C20.9359 5.22324 22.8269 17.9692 23.4059 21.8722C23.4659 22.2742 23.1939 22.6512 22.7929 22.7222L15.6439 23.9672C15.5999 23.9762 15.5569 23.9792 15.5139 23.9792ZM19.4359 5.36424V5.36724C19.4359 5.36524 19.4359 5.36424 19.4359 5.36424Z" fill="#151616"/>
<path d="M15.5149 24.0007C15.4729 24.0007 15.4309 23.9967 15.3889 23.9897L2.53792 21.7997C2.14092 21.7327 1.86792 21.3627 1.91992 20.9637C1.98792 20.4407 3.58592 8.1617 3.65792 7.7137C3.76892 6.7847 4.03792 6.5607 4.90192 6.2837C5.63292 6.0467 14.5629 3.2167 16.0989 2.7907L16.0939 2.7737C16.3679 2.6717 16.7339 2.7377 16.9349 2.9477C17.0769 3.0957 17.1509 3.2957 17.1419 3.4997L16.2639 23.2837C16.2549 23.4987 16.1529 23.6987 15.9859 23.8347C15.8519 23.9427 15.6849 24.0007 15.5149 24.0007ZM3.50092 20.4417L14.8039 22.3687L15.5969 4.4967C12.9509 5.3237 5.60692 7.6297 5.37492 7.7077C5.37192 7.7087 5.36092 7.7117 5.35792 7.7137C5.27992 7.7377 5.21492 7.7577 5.15992 7.7757C5.15492 7.8177 5.14992 7.8667 5.14292 7.9217C5.08492 8.2817 4.01392 16.4967 3.50092 20.4417Z" fill="#151616"/>
<path d="M9.30216 20.2487C6.90516 20.2487 5.66616 18.7067 5.61416 18.6407C5.46416 18.4487 5.41616 18.1947 5.48616 17.9617L6.05116 16.0787C6.12416 15.8347 6.31816 15.6447 6.56316 15.5737C6.81016 15.5047 7.07416 15.5637 7.26516 15.7307C7.63316 16.0527 8.34116 16.5057 8.76516 16.5057C8.79416 16.5057 8.86316 16.5057 8.86817 16.4137C8.86817 16.1507 8.67216 15.9617 8.19016 15.5597C7.49616 14.9787 6.54516 14.1837 6.54516 12.4827C6.52616 11.2097 6.98716 10.0237 7.84416 9.1537C8.75116 8.2347 10.0222 7.7487 11.5202 7.7487C12.7912 7.7487 13.4742 8.1367 13.5472 8.1817C13.8492 8.3637 13.9842 8.7307 13.8712 9.0647L13.0442 11.5147C12.9812 11.7027 12.8462 11.8567 12.6692 11.9457L12.6512 11.9547C12.4332 12.0637 12.1742 12.0587 11.9592 11.9437C11.9572 11.9427 11.3962 11.6507 10.7632 11.6507C10.1972 11.6507 10.1972 11.8337 10.1972 11.9307C10.2412 12.0297 10.6222 12.3167 10.8732 12.5067C11.7332 13.1567 13.0322 14.1407 13.0322 16.1067C13.0332 18.5457 11.4992 20.2487 9.30216 20.2487ZM7.05216 17.9647C7.41616 18.2717 8.16516 18.7487 9.30216 18.7487C10.6572 18.7487 11.5332 17.7117 11.5332 16.1057C11.5332 14.8857 10.7382 14.2847 9.96916 13.7027C9.34416 13.2297 8.69816 12.7407 8.69816 11.9307C8.69816 11.1097 9.23916 10.1507 10.7642 10.1507C11.1762 10.1507 11.5562 10.2217 11.8682 10.3097L12.2072 9.3047C12.0222 9.2727 11.7932 9.2487 11.5192 9.2487C10.4322 9.2487 9.53116 9.5797 8.91316 10.2077C8.34016 10.7887 8.03216 11.5927 8.04516 12.4727C8.04516 13.4847 8.55816 13.9127 9.15216 14.4097C9.69416 14.8627 10.3672 15.4267 10.3672 16.4167C10.3672 17.1987 9.76717 18.0077 8.76416 18.0077C8.20816 18.0077 7.64116 17.7697 7.18816 17.5077L7.05216 17.9647ZM7.10416 7.1437C7.03516 7.1437 6.96616 7.1337 6.89616 7.1147C6.49816 6.9997 6.26816 6.5847 6.38316 6.1867C6.57916 5.5047 8.39216 -0.4543 11.5422 0.0276996C12.3282 0.1507 12.9592 0.5607 13.3692 1.2147C14.1592 2.4797 13.8862 4.2057 13.7142 4.7647C13.5922 5.1607 13.1732 5.3837 12.7762 5.2607C12.3802 5.1387 12.1582 4.7187 12.2802 4.3227C12.4262 3.8507 12.5212 2.6877 12.0972 2.0107C11.9182 1.7257 11.6692 1.5667 11.3112 1.5107C9.96316 1.2827 8.44916 4.4257 7.82416 6.6007C7.73016 6.9297 7.43016 7.1437 7.10416 7.1437Z" fill="#151616"/>
<path d="M10.0063 6.23103C9.97829 6.23103 9.94929 6.22903 9.92029 6.22603C9.50829 6.17903 9.21329 5.80703 9.26029 5.39603C9.44529 3.77403 10.5583 0.707031 13.4463 0.707031C15.2113 0.707031 16.3963 2.26203 16.3963 3.71403C16.3963 4.12803 16.0603 4.46403 15.6463 4.46403C15.2323 4.46403 14.8963 4.12803 14.8963 3.71403C14.8963 3.08503 14.3443 2.20703 13.4463 2.20703C11.1603 2.20703 10.7553 5.53303 10.7513 5.56603C10.7063 5.94903 10.3823 6.23103 10.0063 6.23103Z" fill="#151616"/>
</g>
<defs>
<clipPath id="clip0_2778_8187">
<rect width="24" height="24" fill="white" transform="translate(0.664062)"/>
</clipPath>
</defs>
</svg>
