<svg width="21" height="20" viewBox="0 0 21 20" fill="none" xmlns="http://www.w3.org/2000/svg">
<path d="M9.24301 2.44991V6.96105C9.2432 7.05961 9.21877 7.1566 9.17203 7.24285C9.12529 7.3291 9.05777 7.40178 8.97585 7.45402L1.93122 11.9458C1.84958 11.9979 1.78223 12.0703 1.7355 12.1561C1.68877 12.242 1.66419 12.3386 1.66406 12.4369V13.3068C1.66406 13.395 1.68376 13.482 1.72167 13.5612C1.75958 13.6405 1.8147 13.7099 1.88284 13.7641C1.95098 13.8183 2.03035 13.856 2.1149 13.8743C2.19946 13.8925 2.28697 13.8908 2.3708 13.8694L8.53627 12.2957C8.6201 12.2743 8.70762 12.2726 8.79217 12.2908C8.87673 12.3091 8.95609 12.3468 9.02423 12.401C9.09237 12.4552 9.14749 12.5246 9.1854 12.6039C9.22331 12.6831 9.24301 12.7701 9.24301 12.8583V15.7194C9.24292 15.802 9.22555 15.8836 9.19206 15.9588C9.15857 16.034 9.10972 16.101 9.0488 16.1554L7.00248 17.9823C6.56859 18.3708 6.91059 19.0948 7.47806 18.9895L10.5627 18.4182C10.6297 18.4058 10.6984 18.4058 10.7654 18.4182L13.8501 18.9895C14.4175 19.0958 14.7595 18.3708 14.3256 17.9832L12.2793 16.1564C12.2183 16.1019 12.1694 16.0347 12.1359 15.9594C12.1024 15.884 12.0851 15.8022 12.0851 15.7194V12.8583C12.0851 12.7702 12.1048 12.6833 12.1427 12.6042C12.1805 12.525 12.2356 12.4557 12.3036 12.4015C12.3716 12.3473 12.4509 12.3096 12.5353 12.2912C12.6197 12.2729 12.7071 12.2745 12.7909 12.2957L18.9583 13.8694C19.042 13.8907 19.1295 13.8922 19.2139 13.8739C19.2983 13.8556 19.3776 13.8179 19.4456 13.7636C19.5136 13.7094 19.5686 13.6401 19.6065 13.5609C19.6443 13.4818 19.664 13.3949 19.6641 13.3068V12.4369C19.6639 12.3386 19.6394 12.242 19.5926 12.1561C19.5459 12.0703 19.4785 11.9979 19.3969 11.9458L12.3523 7.45305C12.2705 7.4009 12.2031 7.32838 12.1563 7.24231C12.1096 7.15623 12.0851 7.05945 12.0851 6.96105V2.44991C12.0851 2.06537 11.9354 1.69658 11.6689 1.42467C11.4024 1.15276 11.0409 1 10.6641 1C10.2872 1 9.92573 1.15276 9.65923 1.42467C9.39273 1.69658 9.24301 2.06537 9.24301 2.44991Z" stroke="black" stroke-width="1.5" stroke-linecap="round" stroke-linejoin="round"/>
</svg>
