<svg width="22" height="22" viewBox="0 0 22 22" fill="none" xmlns="http://www.w3.org/2000/svg">
<path d="M20.441 11.0008C20.441 5.72653 16.1656 1.45117 10.8914 1.45117C5.61715 1.45117 1.3418 5.72653 1.3418 11.0008C1.3418 16.275 5.61715 20.5504 10.8914 20.5504" stroke="black" stroke-width="1.65" stroke-linecap="round" stroke-linejoin="round"/>
<path d="M11.8463 1.5C11.8463 1.5 14.7112 5.27209 14.7112 11.0019M9.93638 20.5037C9.93638 20.5037 7.0715 16.7316 7.0715 11.0019C7.0715 5.27209 9.93638 1.5 9.93638 1.5M1.94336 14.3442H10.8913M1.94336 7.65949H19.8393" stroke="black" stroke-width="1.65" stroke-linecap="round" stroke-linejoin="round"/>
<path d="M20.326 16.6528C20.7977 16.9431 20.7681 17.6488 20.283 17.7042L17.8316 17.9821L16.7324 20.19C16.5147 20.6283 15.8415 20.4134 15.7297 19.871L14.5313 14.0305C14.4367 13.5721 14.8493 13.2837 15.2475 13.5291L20.326 16.6528Z" stroke="black" stroke-width="1.65"/>
</svg>
