<svg width="1920" height="1080" viewBox="0 0 1920 1080" fill="none" xmlns="http://www.w3.org/2000/svg">
<g filter="url(#filter0_f_26_642)">
<g filter="url(#filter1_f_26_642)">
<path fill-rule="evenodd" clip-rule="evenodd" d="M720.883 1076.72C716.997 1269.24 862.294 1475.88 740.893 1625.41C602.924 1795.35 338.923 1883.15 139.366 1793.01C-44.8061 1709.81 -7.12895 1448.59 -73.1231 1257.7C-122.91 1113.7 -230.1 986.43 -190.335 839.344C-140.789 656.082 -25.8057 484.506 153.146 420.767C356.485 348.341 622.412 336.409 763.621 499.561C896.492 653.078 724.98 873.802 720.883 1076.72Z" fill="#6D42F2"/>
</g>
<g filter="url(#filter2_f_26_642)">
<path fill-rule="evenodd" clip-rule="evenodd" d="M1672.98 898.725C1669.09 1091.24 1814.25 1297.88 1692.96 1447.41C1555.13 1617.35 1291.39 1705.15 1092.03 1615.01C908.042 1531.81 945.682 1270.59 879.753 1079.7C830.015 935.696 722.93 808.43 762.657 661.344C812.153 478.082 927.023 306.506 1105.8 242.767C1308.94 170.341 1574.6 158.409 1715.67 321.561C1848.41 475.078 1677.07 695.802 1672.98 898.725Z" fill="#6D42F2"/>
</g>
<g filter="url(#filter3_f_26_642)">
<path fill-rule="evenodd" clip-rule="evenodd" d="M536.883 730.725C532.997 923.237 678.294 1129.88 556.893 1279.41C418.924 1449.35 154.923 1537.15 -44.6338 1447.01C-228.806 1363.81 -191.129 1102.59 -257.123 911.704C-306.91 767.696 -414.1 640.43 -374.335 493.344C-324.789 310.082 -209.806 138.506 -30.8539 74.7666C172.485 2.3408 438.412 -9.59058 579.621 153.561C712.492 307.078 540.98 527.802 536.883 730.725Z" fill="#6D42F2"/>
</g>
<g filter="url(#filter4_f_26_642)">
<path fill-rule="evenodd" clip-rule="evenodd" d="M223.883 657.725C219.997 850.237 365.294 1056.88 243.893 1206.41C105.924 1376.35 -158.077 1464.15 -357.634 1374.01C-541.806 1290.81 -504.129 1029.59 -570.123 838.705C-619.91 694.696 -727.1 567.431 -687.335 420.344C-637.789 237.082 -522.806 65.5063 -343.854 1.7667C-140.515 -70.6591 125.412 -82.5905 266.621 80.5606C399.492 234.078 227.98 454.802 223.883 657.725Z" fill="#6D42F2"/>
</g>
<g filter="url(#filter5_f_26_642)">
<path fill-rule="evenodd" clip-rule="evenodd" d="M1406.49 251.68C1327.83 493.744 929.654 324.316 707.779 449.226C568.662 527.546 582.04 826.292 423.81 804.907C269.012 783.986 331.699 530.101 264.254 389.284C197.228 249.341 21.3792 160.744 41.6101 6.91782C69.1954 -202.828 175.068 -440.328 380.216 -492.437C587.491 -545.085 751.261 -342.821 924.368 -217.307C1115.35 -78.8332 1479.37 27.3999 1406.49 251.68Z" fill="#1A298E"/>
</g>
<g filter="url(#filter6_f_26_642)">
<path fill-rule="evenodd" clip-rule="evenodd" d="M1873.91 106.509C1846.48 230.627 1658.1 232.819 1562.36 321.027C1470.07 406.056 1462.73 576.123 1337.01 601.157C1205.93 627.261 1060.28 544.44 992.452 434.514C931.585 335.874 1040.23 220.625 1031.78 106.509C1021.87 -27.4814 870.659 -154.344 940.241 -271.198C1012.24 -392.103 1191.37 -415.674 1337.01 -406.081C1473.81 -397.07 1585.62 -314.744 1682.43 -222.31C1779.06 -130.055 1902.08 -20.9786 1873.91 106.509Z" fill="#2653B0"/>
</g>
<g filter="url(#filter7_f_26_642)">
<path fill-rule="evenodd" clip-rule="evenodd" d="M1578 1433.15C1578.81 1607.27 1429.99 1736.29 1262.99 1785.04C1112.09 1829.09 958.957 1765.47 860.921 1642.48C744.157 1495.99 643.427 1297.3 753.245 1145.52C863.355 993.339 1082.47 1029.45 1259.74 1091.27C1422.21 1147.93 1577.19 1260.95 1578 1433.15Z" fill="#5FCEF6"/>
</g>
<g filter="url(#filter8_f_26_642)">
<path fill-rule="evenodd" clip-rule="evenodd" d="M2307.88 353.209C2304 545.853 2449.29 752.633 2327.89 902.272C2189.92 1072.33 1925.92 1160.19 1726.37 1069.98C1542.19 986.732 1579.87 725.333 1513.88 534.313C1464.09 390.205 1356.9 262.853 1396.67 115.665C1446.21 -67.722 1561.19 -239.415 1740.15 -303.199C1943.48 -375.674 2209.41 -387.614 2350.62 -224.351C2483.49 -70.7279 2311.98 150.148 2307.88 353.209Z" fill="#6D42F2"/>
</g>
</g>
<defs>
<filter id="filter0_f_26_642" x="-1296" y="-1101" width="4297" height="3530" filterUnits="userSpaceOnUse" color-interpolation-filters="sRGB">
<feFlood flood-opacity="0" result="BackgroundImageFix"/>
<feBlend mode="normal" in="SourceGraphic" in2="BackgroundImageFix" result="shape"/>
<feGaussianBlur stdDeviation="300" result="effect1_foregroundBlur_26_642"/>
</filter>
<filter id="filter1_f_26_642" x="-499" y="69.9999" width="1613" height="2059" filterUnits="userSpaceOnUse" color-interpolation-filters="sRGB">
<feFlood flood-opacity="0" result="BackgroundImageFix"/>
<feBlend mode="normal" in="SourceGraphic" in2="BackgroundImageFix" result="shape"/>
<feGaussianBlur stdDeviation="150" result="effect1_foregroundBlur_26_642"/>
</filter>
<filter id="filter2_f_26_642" x="454" y="-108" width="1612" height="2059" filterUnits="userSpaceOnUse" color-interpolation-filters="sRGB">
<feFlood flood-opacity="0" result="BackgroundImageFix"/>
<feBlend mode="normal" in="SourceGraphic" in2="BackgroundImageFix" result="shape"/>
<feGaussianBlur stdDeviation="150" result="effect1_foregroundBlur_26_642"/>
</filter>
<filter id="filter3_f_26_642" x="-683" y="-276" width="1613" height="2059" filterUnits="userSpaceOnUse" color-interpolation-filters="sRGB">
<feFlood flood-opacity="0" result="BackgroundImageFix"/>
<feBlend mode="normal" in="SourceGraphic" in2="BackgroundImageFix" result="shape"/>
<feGaussianBlur stdDeviation="150" result="effect1_foregroundBlur_26_642"/>
</filter>
<filter id="filter4_f_26_642" x="-996" y="-349" width="1613" height="2059" filterUnits="userSpaceOnUse" color-interpolation-filters="sRGB">
<feFlood flood-opacity="0" result="BackgroundImageFix"/>
<feBlend mode="normal" in="SourceGraphic" in2="BackgroundImageFix" result="shape"/>
<feGaussianBlur stdDeviation="150" result="effect1_foregroundBlur_26_642"/>
</filter>
<filter id="filter5_f_26_642" x="-260" y="-801" width="1976" height="1907" filterUnits="userSpaceOnUse" color-interpolation-filters="sRGB">
<feFlood flood-opacity="0" result="BackgroundImageFix"/>
<feBlend mode="normal" in="SourceGraphic" in2="BackgroundImageFix" result="shape"/>
<feGaussianBlur stdDeviation="150" result="effect1_foregroundBlur_26_642"/>
</filter>
<filter id="filter6_f_26_642" x="622" y="-708" width="1556" height="1614" filterUnits="userSpaceOnUse" color-interpolation-filters="sRGB">
<feFlood flood-opacity="0" result="BackgroundImageFix"/>
<feBlend mode="normal" in="SourceGraphic" in2="BackgroundImageFix" result="shape"/>
<feGaussianBlur stdDeviation="150" result="effect1_foregroundBlur_26_642"/>
</filter>
<filter id="filter7_f_26_642" x="406" y="738" width="1472" height="1361" filterUnits="userSpaceOnUse" color-interpolation-filters="sRGB">
<feFlood flood-opacity="0" result="BackgroundImageFix"/>
<feBlend mode="normal" in="SourceGraphic" in2="BackgroundImageFix" result="shape"/>
<feGaussianBlur stdDeviation="150" result="effect1_foregroundBlur_26_642"/>
</filter>
<filter id="filter8_f_26_642" x="1088" y="-654" width="1613" height="2060" filterUnits="userSpaceOnUse" color-interpolation-filters="sRGB">
<feFlood flood-opacity="0" result="BackgroundImageFix"/>
<feBlend mode="normal" in="SourceGraphic" in2="BackgroundImageFix" result="shape"/>
<feGaussianBlur stdDeviation="150" result="effect1_foregroundBlur_26_642"/>
</filter>
</defs>
</svg>
