<svg width="20" height="17" viewBox="0 0 20 17" fill="none" xmlns="http://www.w3.org/2000/svg">
<path d="M19.5742 14.6738L2.05469 0.992188C1.9668 0.933594 1.84961 0.904297 1.76172 0.904297C1.58594 0.904297 1.46875 0.962891 1.38086 1.05078L1.08789 1.43164C1.0293 1.51953 0.970703 1.60742 0.970703 1.72461C0.970703 1.87109 1.05859 2.01758 1.17578 2.07617L18.6953 15.7871C18.7539 15.8457 18.8711 15.875 18.959 15.875C19.1348 15.875 19.252 15.8164 19.3398 15.6992L19.6328 15.3477C19.6914 15.2598 19.75 15.1719 19.75 15.0547C19.75 14.9082 19.6621 14.7617 19.5742 14.6738ZM9.67188 5.18164L13.627 8.25781C13.5684 6.5 12.1328 5.09375 10.375 5.09375C10.1406 5.12305 9.90625 5.12305 9.67188 5.18164ZM11.0488 11.5977L7.09375 8.52148C7.15234 10.2793 8.58789 11.6562 10.375 11.6562C10.5801 11.6562 10.8145 11.6562 11.0488 11.5977ZM10.375 4.15625C13.2461 4.15625 15.9121 5.76758 17.3184 8.375C16.9668 9.04883 16.5566 9.63477 16.0293 10.1621L17.1426 11.0117C17.7578 10.3672 18.2852 9.63477 18.6953 8.81445C18.7539 8.69727 18.8125 8.55078 18.8125 8.4043C18.8125 8.22852 18.7539 8.08203 18.6953 7.96484C17.1133 4.85938 13.9492 2.75 10.375 2.75C9.29102 2.75 8.26562 2.95508 7.29883 3.30664L8.64648 4.39062C9.20312 4.24414 9.78906 4.15625 10.375 4.15625ZM10.375 12.5938C7.47461 12.5938 4.80859 10.9824 3.40234 8.375C3.75391 7.73047 4.16406 7.14453 4.69141 6.61719L3.57812 5.76758C2.96289 6.41211 2.43555 7.14453 2.02539 7.96484C1.9668 8.08203 1.9375 8.22852 1.9375 8.375C1.9375 8.55078 1.9668 8.69727 2.02539 8.81445C3.60742 11.9199 6.77148 14 10.375 14C11.4297 14 12.4551 13.7949 13.4219 13.4727L12.0742 12.3887C11.5176 12.5352 10.9316 12.5938 10.375 12.5938Z" fill="#B9B9B9"/>
</svg>
