<svg width="17" height="17" viewBox="0 0 17 17" fill="none" xmlns="http://www.w3.org/2000/svg">
<path d="M8.4375 5.09375C8.11523 5.12305 7.79297 5.15234 7.5 5.24023C7.64648 5.47461 7.70508 5.76758 7.73438 6.03125C7.73438 6.93945 6.97266 7.67188 6.09375 7.67188C5.80078 7.67188 5.50781 7.61328 5.30273 7.4668C5.21484 7.75977 5.15625 8.05273 5.15625 8.375C5.15625 10.1914 6.62109 11.6562 8.4375 11.6562C10.2539 11.6562 11.7188 10.1914 11.7188 8.375C11.7188 6.58789 10.2539 5.12305 8.4375 5.12305V5.09375ZM16.7578 7.96484C15.1758 4.85938 12.0117 2.75 8.4375 2.75C4.83398 2.75 1.66992 4.85938 0.0878906 7.96484C0.0292969 8.08203 0 8.22852 0 8.375C0 8.55078 0.0292969 8.69727 0.0878906 8.81445C1.66992 11.9199 4.83398 14 8.4375 14C12.0117 14 15.1758 11.9199 16.7578 8.81445C16.8164 8.69727 16.8457 8.55078 16.8457 8.4043C16.8457 8.22852 16.8164 8.08203 16.7578 7.96484ZM8.4375 12.5938C5.53711 12.5938 2.87109 10.9824 1.46484 8.375C2.87109 5.76758 5.53711 4.15625 8.4375 4.15625C11.3086 4.15625 13.9746 5.76758 15.3809 8.375C13.9746 10.9824 11.3086 12.5938 8.4375 12.5938Z" fill="#B9B9B9"/>
</svg>
