<svg width="200" height="42" viewBox="0 0 200 42" fill="none" xmlns="http://www.w3.org/2000/svg">
<path d="M83.4967 9.98503H80.4693V11.3053C79.3311 10.2354 78.1475 9.66635 76.6451 9.66635C73.5722 9.66635 71 12.1247 71 15.8578C71 19.4771 73.5494 22.072 76.8045 22.072C78.3751 22.072 79.4677 21.5485 80.4693 20.5697C80.4693 21.7078 80.4465 22.5273 79.7181 23.2101C79.1718 23.7109 78.2613 24.0068 77.1459 24.0068C75.8712 24.0068 74.9607 23.6882 74.3461 22.9598H71C71.8195 25.4864 73.9364 26.7839 77.2597 26.7839C79.1035 26.7839 80.5603 26.3514 81.6529 25.4409C83.0415 24.2572 83.4967 22.6866 83.4967 20.342V9.98503ZM77.328 12.4434C79.3311 12.4434 80.6286 13.9457 80.6286 15.9033C80.6286 17.952 79.2401 19.295 77.3735 19.295C75.4842 19.295 74.0502 17.8837 74.0502 15.8806C74.0502 14.014 75.3249 12.4434 77.328 12.4434Z" fill="white"/>
<path d="M86.2545 22.072H89.282V5.31868H86.2545V22.072Z" fill="white"/>
<path d="M97.7095 9.66635C94.4089 9.66635 91.4498 12.3751 91.4498 16.0399C91.4498 19.5909 94.2268 22.3907 97.7323 22.3907C101.42 22.3907 104.129 19.5226 104.129 16.0171C104.129 12.4434 101.238 9.66635 97.7095 9.66635ZM97.755 12.5344C99.7354 12.5344 101.078 13.9913 101.078 16.0399C101.078 18.1568 99.6216 19.5226 97.755 19.5226C95.7974 19.5226 94.5 18.0658 94.5 16.0171C94.5 14.014 95.8657 12.5344 97.755 12.5344Z" fill="white"/>
<path d="M109.606 22.072H111.496L114.159 15.1749L116.731 22.072H118.666L123.059 9.98503H120.077L117.642 16.7683L115.069 9.98503H113.248L110.631 16.8594L108.218 9.98503H105.236L109.606 22.072Z" fill="white"/>
<path d="M124.489 22.072H127.516V9.98503H124.489V22.072ZM125.991 5C124.944 5 124.056 5.79669 124.056 6.84378C124.056 7.95915 124.876 8.93794 125.991 8.93794C127.061 8.93794 127.926 8.07296 127.926 7.00312C127.926 5.91051 127.084 5 125.991 5Z" fill="white"/>
<path d="M133.28 9.98503H130.253V22.072H133.28V16.9276C133.28 15.6757 133.258 14.5831 133.872 13.6043C134.35 12.8531 135.079 12.4434 135.921 12.4434C137.765 12.4434 137.97 13.9685 137.97 16.3586V22.072H140.997V13.8092C140.997 11.2142 139.108 9.66635 136.854 9.66635C135.511 9.66635 134.441 10.2354 133.28 11.2142V9.98503Z" fill="white"/>
<path d="M155.875 9.98503H152.847V11.3053C151.709 10.2354 150.526 9.66635 149.023 9.66635C145.95 9.66635 143.378 12.1247 143.378 15.8578C143.378 19.4771 145.928 22.072 149.183 22.072C150.753 22.072 151.846 21.5485 152.847 20.5697C152.847 21.7078 152.825 22.5273 152.096 23.2101C151.55 23.7109 150.639 24.0068 149.524 24.0068C148.249 24.0068 147.339 23.6882 146.724 22.9598H143.378C144.198 25.4864 146.315 26.7839 149.638 26.7839C151.482 26.7839 152.939 26.3514 154.031 25.4409C155.42 24.2572 155.875 22.6866 155.875 20.342V9.98503ZM149.706 12.4434C151.709 12.4434 153.007 13.9457 153.007 15.9033C153.007 17.952 151.618 19.295 149.752 19.295C147.862 19.295 146.428 17.8837 146.428 15.8806C146.428 14.014 147.703 12.4434 149.706 12.4434Z" fill="white"/>
<path d="M161.956 20.7973C163.049 21.8444 164.164 22.3907 165.689 22.3907C168.762 22.3907 171.471 19.7502 171.471 16.0399C171.471 12.2613 168.876 9.66635 165.757 9.66635C164.301 9.66635 163.049 10.2127 161.956 11.3053V5.31868H158.929V22.072H161.956V20.7973ZM165.143 12.4434C167.146 12.4434 168.421 14.0368 168.421 16.0171C168.421 18.0885 167.032 19.6136 165.143 19.6136C163.276 19.6136 161.82 18.1796 161.82 15.9944C161.82 13.8774 163.208 12.4434 165.143 12.4434Z" fill="white"/>
<path d="M173.978 15.5164C173.978 16.5179 173.933 17.087 174.092 18.0658C174.57 20.8883 176.368 22.3679 179.282 22.3679C180.966 22.3679 182.218 21.9127 183.174 20.8428C184.449 19.4315 184.586 17.7926 184.586 15.5619V9.98503H181.558V16.4269C181.558 18.4755 180.898 19.5909 179.282 19.5909C177.689 19.5909 177.006 18.4527 177.006 16.2903V9.98503H173.978V15.5164Z" fill="white"/>
<path d="M196.55 22.072H199.577V5.31868H196.55V11.3053C195.457 10.2127 194.205 9.66635 192.749 9.66635C189.607 9.66635 187.058 12.2613 187.058 16.0399C187.058 19.7502 189.744 22.3907 192.817 22.3907C194.342 22.3907 195.48 21.8444 196.55 20.7973V22.072ZM193.363 12.4434C195.275 12.4434 196.687 13.8774 196.687 15.9944C196.687 18.2024 195.23 19.6136 193.363 19.6136C191.474 19.6136 190.108 18.0885 190.108 16.0171C190.108 14.0368 191.36 12.4434 193.363 12.4434Z" fill="white"/>
<path d="M47 5C49.5712 5 52.0846 5.76244 54.2224 7.19089C56.3602 8.61935 58.0265 10.6497 59.0104 13.0251C59.9944 15.4006 60.2518 18.0144 59.7502 20.5362C59.2486 23.0579 58.0105 25.3743 56.1924 27.1924C54.3743 29.0105 52.0579 30.2486 49.5362 30.7502C47.0144 31.2518 44.4006 30.9944 42.0251 30.0104C39.6497 29.0265 37.6194 27.3602 36.1909 25.2224C34.7624 23.0846 34 20.5712 34 18C34.0001 14.5522 35.3698 11.2457 37.8077 8.80773C40.2457 6.36978 43.5522 5.00011 47 5ZM47 25.8C48.5427 25.8003 50.0509 25.3432 51.3338 24.4863C52.6167 23.6295 53.6167 22.4114 54.2073 20.9862C54.798 19.5611 54.9527 17.9927 54.652 16.4796C54.3513 14.9665 53.6086 13.5765 52.5179 12.4854C51.4272 11.3944 50.0375 10.6513 48.5244 10.3501C47.0114 10.0489 45.443 10.2032 44.0176 10.7933C42.5923 11.3835 41.3739 12.3832 40.5167 13.6658C39.6594 14.9484 39.2018 16.4564 39.2016 17.9992C39.204 20.0669 40.0264 22.0493 41.4884 23.5115C42.9504 24.9738 44.9323 25.7973 47 25.8Z" fill="#5FCEF6"/>
<path d="M39 18.6986C39 19.309 38.7893 19.8944 38.4141 20.3259C38.039 20.7575 37.5302 21 36.9997 21H35.9995C35.4691 20.9998 34.9606 20.7572 34.5856 20.3256C34.2106 19.8941 34 19.3088 34 18.6986V4.60274C34 3.38217 34.4214 2.21159 35.1715 1.34843C35.9216 0.485277 36.9389 0.000240269 37.9998 0H39V18.6986Z" fill="#5FCEF6"/>
<path d="M4 0C4.79112 0 5.56448 0.234596 6.22228 0.674121C6.88008 1.11365 7.39277 1.73836 7.69552 2.46927C7.99827 3.20017 8.07748 4.00444 7.92314 4.78036C7.7688 5.55628 7.38784 6.26902 6.82843 6.82843C6.26902 7.38784 5.55628 7.7688 4.78036 7.92314C4.00444 8.07748 3.20017 7.99827 2.46927 7.69552C1.73836 7.39277 1.11365 6.88008 0.674121 6.22228C0.234596 5.56448 0 4.79112 0 4C0 2.93913 0.421427 1.92172 1.17157 1.17157C1.92172 0.421427 2.93913 0 4 0Z" fill="#F1BF62"/>
<path d="M17.0199 31C14.015 30.9977 11.1032 29.9583 8.7777 28.0577C6.45222 26.1572 4.856 23.5123 4.2594 20.5711C3.6628 17.6298 4.1025 14.5731 5.50401 11.9185C6.90552 9.26394 9.1827 7.17475 11.9499 6.00479C15.1301 4.6786 18.7068 4.6647 21.8973 5.96613C25.0877 7.26756 27.6319 9.77831 28.973 12.9488C30.3141 16.1193 30.3428 19.6913 29.0529 22.8829C27.763 26.0745 25.2594 28.6257 22.0904 29.9781C20.4862 30.6559 18.7617 31.0035 17.0199 31ZM17.0199 10.0959C15.0663 10.0984 13.1834 10.8255 11.7362 12.1361C10.2891 13.4467 9.38097 15.2474 9.188 17.1888C8.99503 19.1303 9.53098 21.0741 10.6919 22.6432C11.8528 24.2124 13.5559 25.295 15.4708 25.681C17.3857 26.0671 19.376 25.729 21.0555 24.7325C22.735 23.736 23.984 22.1521 24.5603 20.2879C25.1366 18.4237 24.999 16.4122 24.1743 14.6436C23.3496 12.875 21.8965 11.4754 20.0969 10.7162C19.1235 10.3048 18.0769 10.0938 17.0199 10.0959Z" fill="#3D38D0"/>
<path d="M17.0022 41.9991C14.0439 42.0025 11.1526 41.1449 8.70193 39.537C7.12187 38.5012 5.76068 37.1816 4.69177 35.6494C4.44668 35.2981 3.89038 33.8945 3.6778 33.5209L5.5 32.5C6.19756 32.1174 7.00614 31.9699 7.79928 32.0806C8.59241 32.1913 9.64975 33.5899 10.2079 34.1478L10.2276 34.167C11.2841 35.1909 12.5725 35.961 13.99 36.416C15.4076 36.8711 16.9151 36.9984 18.3923 36.7879C19.8696 36.5774 21.2757 36.0349 22.4986 35.2036C23.7215 34.3724 24.7273 33.2753 25.4359 32L30.0022 34.5558C29.7892 34.9299 29.5568 35.2972 29.3126 35.6485C27.7011 37.9643 25.4323 39.7771 22.7808 40.8675C20.9527 41.6187 18.987 42.0038 17.0017 42" fill="#3D38D0"/>
</svg>
