<svg width="56" height="56" viewBox="0 0 56 56" fill="none" xmlns="http://www.w3.org/2000/svg">
<rect x="4" y="4" width="48" height="48" rx="24" fill="#3AEE8D"/>
<path fill-rule="evenodd" clip-rule="evenodd" d="M24.1875 24.875C24.1875 22.7234 25.9317 20.9792 28.0833 20.9792C30.2349 20.9792 31.9792 22.7234 31.9792 24.875C31.9792 27.0266 30.2349 28.7709 28.0833 28.7709C25.9317 28.7709 24.1875 27.0266 24.1875 24.875ZM28.0833 22.3542C26.6911 22.3542 25.5625 23.4828 25.5625 24.875C25.5625 26.2672 26.6911 27.3959 28.0833 27.3959C29.4756 27.3959 30.6042 26.2672 30.6042 24.875C30.6042 23.4828 29.4756 22.3542 28.0833 22.3542Z" fill="#07A92B"/>
<path fill-rule="evenodd" clip-rule="evenodd" d="M20.9785 33.5833C20.9785 31.6848 22.5175 30.1458 24.416 30.1458H24.7285C24.8976 30.1458 25.0656 30.1726 25.2264 30.225L26.0198 30.4842C27.3603 30.9218 28.8051 30.9218 30.1455 30.4842L30.9389 30.225C31.0997 30.1726 31.2677 30.1458 31.4369 30.1458H31.7493C33.6479 30.1458 35.1868 31.6848 35.1868 33.5833V34.6726C35.1868 35.363 34.6864 35.9517 34.005 36.063C30.0828 36.7034 26.0826 36.7034 22.1603 36.063C21.4789 35.9517 20.9785 35.363 20.9785 34.6726V33.5833ZM24.416 31.5208C23.2769 31.5208 22.3535 32.4443 22.3535 33.5833V34.6726C22.3535 34.6892 22.3655 34.7033 22.3819 34.706C26.1574 35.3224 30.008 35.3224 33.7834 34.706C33.7998 34.7033 33.8118 34.6892 33.8118 34.6726V33.5833C33.8118 32.4443 32.8884 31.5208 31.7493 31.5208H31.4369C31.4127 31.5208 31.3887 31.5247 31.3657 31.5321L30.5723 31.7912C28.9546 32.3194 27.2107 32.3194 25.593 31.7912L24.7996 31.5321C24.7767 31.5247 24.7526 31.5208 24.7285 31.5208H24.416Z" fill="#07A92B"/>
<path d="M35.8757 23.7292C36.2553 23.7292 36.5632 24.037 36.5632 24.4167V26.0209H38.1673C38.547 26.0209 38.8548 26.3287 38.8548 26.7084C38.8548 27.088 38.547 27.3959 38.1673 27.3959H36.5632V29C36.5632 29.3797 36.2553 29.6875 35.8757 29.6875C35.496 29.6875 35.1882 29.3797 35.1882 29V27.3959H33.584C33.2043 27.3959 32.8965 27.088 32.8965 26.7084C32.8965 26.3287 33.2043 26.0209 33.584 26.0209H35.1882V24.4167C35.1882 24.037 35.496 23.7292 35.8757 23.7292Z" fill="#07A92B"/>
<rect x="4" y="4" width="48" height="48" rx="24" stroke="#209153" stroke-width="8"/>
</svg>
