<svg width="25" height="24" viewBox="0 0 25 24" fill="none" xmlns="http://www.w3.org/2000/svg">
<path d="M8.35547 5.75C7.94547 5.75 7.60547 5.41 7.60547 5V2C7.60547 1.59 7.94547 1.25 8.35547 1.25C8.76547 1.25 9.10547 1.59 9.10547 2V5C9.10547 5.41 8.76547 5.75 8.35547 5.75ZM16.3555 5.75C15.9455 5.75 15.6055 5.41 15.6055 5V2C15.6055 1.59 15.9455 1.25 16.3555 1.25C16.7655 1.25 17.1055 1.59 17.1055 2V5C17.1055 5.41 16.7655 5.75 16.3555 5.75ZM8.85547 14.498C8.72547 14.498 8.59547 14.468 8.47547 14.418C8.34547 14.368 8.24547 14.298 8.14547 14.208C7.96547 14.018 7.85547 13.768 7.85547 13.498C7.85547 13.368 7.88547 13.238 7.93547 13.118C7.98547 12.998 8.05547 12.888 8.14547 12.788C8.24547 12.698 8.34547 12.628 8.47547 12.578C8.83547 12.428 9.28547 12.508 9.56547 12.788C9.74547 12.978 9.85547 13.238 9.85547 13.498C9.85547 13.558 9.84547 13.628 9.83547 13.698C9.82547 13.758 9.80547 13.818 9.77547 13.878C9.75547 13.938 9.72547 13.998 9.68547 14.058C9.65547 14.108 9.60547 14.158 9.56547 14.208C9.37547 14.388 9.11547 14.498 8.85547 14.498ZM12.3555 14.499C12.2255 14.499 12.0955 14.469 11.9755 14.419C11.8455 14.369 11.7455 14.299 11.6455 14.209C11.4655 14.019 11.3555 13.769 11.3555 13.499C11.3555 13.369 11.3855 13.239 11.4355 13.119C11.4855 12.999 11.5555 12.889 11.6455 12.789C11.7455 12.699 11.8455 12.629 11.9755 12.579C12.3355 12.419 12.7855 12.509 13.0655 12.789C13.2455 12.979 13.3555 13.239 13.3555 13.499C13.3555 13.559 13.3455 13.629 13.3355 13.699C13.3255 13.759 13.3055 13.819 13.2755 13.879C13.2555 13.939 13.2255 13.999 13.1855 14.059C13.1555 14.109 13.1055 14.159 13.0655 14.209C12.8755 14.389 12.6155 14.499 12.3555 14.499ZM15.8555 14.499C15.7255 14.499 15.5955 14.469 15.4755 14.419C15.3455 14.369 15.2455 14.299 15.1455 14.209L15.0255 14.059C14.9876 14.0033 14.9573 13.9427 14.9355 13.879C14.9066 13.8223 14.8864 13.7617 14.8755 13.699C14.8655 13.629 14.8555 13.559 14.8555 13.499C14.8555 13.239 14.9655 12.979 15.1455 12.789C15.2455 12.699 15.3455 12.629 15.4755 12.579C15.8455 12.419 16.2855 12.509 16.5655 12.789C16.7455 12.979 16.8555 13.239 16.8555 13.499C16.8555 13.559 16.8455 13.629 16.8355 13.699C16.8255 13.759 16.8055 13.819 16.7755 13.879C16.7555 13.939 16.7255 13.999 16.6855 14.059C16.6555 14.109 16.6055 14.159 16.5655 14.209C16.3755 14.389 16.1155 14.499 15.8555 14.499ZM8.85547 18C8.72547 18 8.59547 17.97 8.47547 17.92C8.35547 17.87 8.24547 17.8 8.14547 17.71C7.96547 17.52 7.85547 17.26 7.85547 17C7.85547 16.87 7.88547 16.74 7.93547 16.62C7.98547 16.49 8.05547 16.38 8.14547 16.29C8.51547 15.92 9.19547 15.92 9.56547 16.29C9.74547 16.48 9.85547 16.74 9.85547 17C9.85547 17.26 9.74547 17.52 9.56547 17.71C9.37547 17.89 9.11547 18 8.85547 18ZM12.3555 18C12.0955 18 11.8355 17.89 11.6455 17.71C11.4655 17.52 11.3555 17.26 11.3555 17C11.3555 16.87 11.3855 16.74 11.4355 16.62C11.4855 16.49 11.5555 16.38 11.6455 16.29C12.0155 15.92 12.6955 15.92 13.0655 16.29C13.1555 16.38 13.2255 16.49 13.2755 16.62C13.3255 16.74 13.3555 16.87 13.3555 17C13.3555 17.26 13.2455 17.52 13.0655 17.71C12.8755 17.89 12.6155 18 12.3555 18ZM15.8555 18C15.5955 18 15.3355 17.89 15.1455 17.71C15.0529 17.6161 14.9814 17.5036 14.9355 17.38C14.8841 17.2598 14.8569 17.1307 14.8555 17C14.8555 16.87 14.8855 16.74 14.9355 16.62C14.9855 16.49 15.0555 16.38 15.1455 16.29C15.3755 16.06 15.7255 15.95 16.0455 16.02C16.1155 16.03 16.1755 16.05 16.2355 16.08C16.2955 16.1 16.3555 16.13 16.4155 16.17C16.4655 16.2 16.5155 16.25 16.5655 16.29C16.7455 16.48 16.8555 16.74 16.8555 17C16.8555 17.26 16.7455 17.52 16.5655 17.71C16.3755 17.89 16.1155 18 15.8555 18ZM20.8555 9.84H3.85547C3.44547 9.84 3.10547 9.5 3.10547 9.09C3.10547 8.68 3.44547 8.34 3.85547 8.34H20.8555C21.2655 8.34 21.6055 8.68 21.6055 9.09C21.6055 9.5 21.2655 9.84 20.8555 9.84Z" fill="white"/>
<path d="M16.3555 22.75H8.35547C4.70547 22.75 2.60547 20.65 2.60547 17V8.5C2.60547 4.85 4.70547 2.75 8.35547 2.75H16.3555C20.0055 2.75 22.1055 4.85 22.1055 8.5V17C22.1055 20.65 20.0055 22.75 16.3555 22.75ZM8.35547 4.25C5.49547 4.25 4.10547 5.64 4.10547 8.5V17C4.10547 19.86 5.49547 21.25 8.35547 21.25H16.3555C19.2155 21.25 20.6055 19.86 20.6055 17V8.5C20.6055 5.64 19.2155 4.25 16.3555 4.25H8.35547Z" fill="white"/>
</svg>
