<svg width="10" height="18" viewBox="0 0 10 18" fill="none" xmlns="http://www.w3.org/2000/svg">
<path d="M-7.57266e-07 9C0.0097649 9.3418 0.136718 9.63477 0.40039 9.89844L7.99805 17.3301C8.22266 17.5449 8.48633 17.6621 8.80859 17.6621C9.46289 17.6621 9.9707 17.1543 9.9707 16.5C9.9707 16.1875 9.84375 15.8945 9.61914 15.6699L2.7832 9L9.61914 2.33008C9.84375 2.10547 9.9707 1.82227 9.9707 1.5C9.9707 0.845703 9.46289 0.337891 8.80859 0.337891C8.49609 0.337891 8.22265 0.455078 7.99805 0.669922L0.40039 8.11133C0.126952 8.36524 -7.87146e-07 8.6582 -7.57266e-07 9Z" fill="#6365EF"/>
</svg>
