<svg width="20" height="20" viewBox="0 0 20 20" fill="none" xmlns="http://www.w3.org/2000/svg">
<path d="M19.5609 8.73812L18.2109 7.15812C17.9609 6.85812 17.7509 6.29812 17.7509 5.89812V4.19812C17.7509 3.13812 16.8809 2.26813 15.8209 2.26813H14.1209C13.7209 2.26813 13.1509 2.05813 12.8509 1.80813L11.2709 0.458125C10.5809 -0.131875 9.45086 -0.131875 8.76086 0.458125L7.16086 1.80813C6.86086 2.05813 6.30086 2.26813 5.90086 2.26813H4.17086C3.11086 2.26813 2.24086 3.13812 2.24086 4.19812V5.89812C2.24086 6.28812 2.04086 6.84812 1.79086 7.14812L0.440859 8.73812C-0.139141 9.43812 -0.139141 10.5581 0.440859 11.2381L1.79086 12.8281C2.04086 13.1181 2.24086 13.6881 2.24086 14.0781V15.7881C2.24086 16.8481 3.11086 17.7181 4.17086 17.7181H5.91086C6.30086 17.7181 6.87086 17.9281 7.17086 18.1781L8.75086 19.5281C9.44086 20.1181 10.5709 20.1181 11.2609 19.5281L12.8409 18.1781C13.1409 17.9281 13.7009 17.7181 14.1009 17.7181H15.8009C16.8609 17.7181 17.7309 16.8481 17.7309 15.7881V14.0881C17.7309 13.6881 17.9409 13.1281 18.1909 12.8281L19.5409 11.2481C20.1509 10.5681 20.1509 9.43812 19.5609 8.73812ZM9.25086 6.12813C9.25086 5.71813 9.59086 5.37812 10.0009 5.37812C10.4109 5.37812 10.7509 5.71813 10.7509 6.12813V10.9581C10.7509 11.3681 10.4109 11.7081 10.0009 11.7081C9.59086 11.7081 9.25086 11.3681 9.25086 10.9581V6.12813ZM10.0009 14.8681C9.45086 14.8681 9.00086 14.4181 9.00086 13.8681C9.00086 13.3181 9.44086 12.8681 10.0009 12.8681C10.5509 12.8681 11.0009 13.3181 11.0009 13.8681C11.0009 14.4181 10.5609 14.8681 10.0009 14.8681Z" fill="#FE4242"/>
</svg>
