<svg width="21" height="21" viewBox="0 0 19 13" fill="none" xmlns="http://www.w3.org/2000/svg">
<rect width="21" height="21" fill="#EBEBEB"/>
<path d="M-2241 -1635C-2241 -1636.1 -2240.1 -1637 -2239 -1637H1152C1153.1 -1637 1154 -1636.1 1154 -1635V1337C1154 1338.1 1153.1 1339 1152 1339H-2239C-2240.1 1339 -2241 1338.1 -2241 1337V-1635Z" fill="#E5E5E5"/>
<rect width="1920" height="1080" transform="translate(-1503 -61)" fill="#151616"/>
<g filter="url(#filter0_dd_126_1805)">
<rect x="-60" y="-19" width="95" height="50" rx="25" fill="#24272C"/>
</g>
<g filter="url(#filter1_d_126_1805)">
<circle cx="10" cy="6" r="19" fill="#E9EAF0"/>
</g>
<g filter="url(#filter2_d_126_1805)">
<path fill-rule="evenodd" clip-rule="evenodd" d="M9.71964 1.05411C7.10552 1.23711 5.04167 3.41573 5.04167 6.07639C5.04167 8.85699 7.29579 11.1111 10.0764 11.1111C12.3041 11.1111 14.1942 9.66402 14.8575 7.6588C14.347 7.86969 13.7876 7.98611 13.2014 7.98611C10.8043 7.98611 8.86111 6.0429 8.86111 3.64583C8.86111 2.67421 9.18064 1.77715 9.71964 1.05411ZM4 6.07639C4 2.72049 6.72049 0 10.0764 0C10.3886 0 10.6957 0.0235945 10.9958 0.0691799C11.2034 0.100714 11.3718 0.253843 11.4228 0.457543C11.4738 0.661242 11.3975 0.875661 11.2293 1.00135C10.4231 1.60371 9.90278 2.56395 9.90278 3.64583C9.90278 5.46761 11.3796 6.94444 13.2014 6.94444C13.9891 6.94444 14.711 6.66903 15.2782 6.20878C15.4411 6.07653 15.6676 6.05502 15.8525 6.15424C16.0375 6.25345 16.1448 6.45399 16.1248 6.66292C15.8294 9.74389 13.2345 12.1528 10.0764 12.1528C6.72049 12.1528 4 9.43229 4 6.07639Z" fill="#24272C"/>
</g>
<path d="M-2239 -1636H1152V-1638H-2239V-1636ZM1153 -1635V1337H1155V-1635H1153ZM1152 1338H-2239V1340H1152V1338ZM-2240 1337V-1635H-2242V1337H-2240ZM-2239 1338C-2239.55 1338 -2240 1337.55 -2240 1337H-2242C-2242 1338.66 -2240.66 1340 -2239 1340V1338ZM1153 1337C1153 1337.55 1152.55 1338 1152 1338V1340C1153.66 1340 1155 1338.66 1155 1337H1153ZM1152 -1636C1152.55 -1636 1153 -1635.55 1153 -1635H1155C1155 -1636.66 1153.66 -1638 1152 -1638V-1636ZM-2239 -1638C-2240.66 -1638 -2242 -1636.66 -2242 -1635H-2240C-2240 -1635.55 -2239.55 -1636 -2239 -1636V-1638Z" fill="black" fill-opacity="0.1"/>
<defs>
<filter id="filter0_dd_126_1805" x="-68.05" y="-27.05" width="127.2" height="82.2" filterUnits="userSpaceOnUse" color-interpolation-filters="sRGB">
<feFlood flood-opacity="0" result="BackgroundImageFix"/>
<feColorMatrix in="SourceAlpha" type="matrix" values="0 0 0 0 0 0 0 0 0 0 0 0 0 0 0 0 0 0 127 0" result="hardAlpha"/>
<feOffset dx="8.05" dy="8.05"/>
<feGaussianBlur stdDeviation="8.05"/>
<feComposite in2="hardAlpha" operator="out"/>
<feColorMatrix type="matrix" values="0 0 0 0 0.141176 0 0 0 0 0.152941 0 0 0 0 0.172549 0 0 0 1 0"/>
<feBlend mode="overlay" in2="BackgroundImageFix" result="effect1_dropShadow_126_1805"/>
<feColorMatrix in="SourceAlpha" type="matrix" values="0 0 0 0 0 0 0 0 0 0 0 0 0 0 0 0 0 0 127 0" result="hardAlpha"/>
<feOffset dy="3.22"/>
<feGaussianBlur stdDeviation="1.61"/>
<feComposite in2="hardAlpha" operator="out"/>
<feColorMatrix type="matrix" values="0 0 0 0 0 0 0 0 0 0 0 0 0 0 0 0 0 0 0.25 0"/>
<feBlend mode="normal" in2="effect1_dropShadow_126_1805" result="effect2_dropShadow_126_1805"/>
<feBlend mode="normal" in="SourceGraphic" in2="effect2_dropShadow_126_1805" result="shape"/>
</filter>
<filter id="filter1_d_126_1805" x="-13" y="-13" width="46" height="46" filterUnits="userSpaceOnUse" color-interpolation-filters="sRGB">
<feFlood flood-opacity="0" result="BackgroundImageFix"/>
<feColorMatrix in="SourceAlpha" type="matrix" values="0 0 0 0 0 0 0 0 0 0 0 0 0 0 0 0 0 0 127 0" result="hardAlpha"/>
<feOffset dy="4"/>
<feGaussianBlur stdDeviation="2"/>
<feComposite in2="hardAlpha" operator="out"/>
<feColorMatrix type="matrix" values="0 0 0 0 0 0 0 0 0 0 0 0 0 0 0 0 0 0 0.25 0"/>
<feBlend mode="normal" in2="BackgroundImageFix" result="effect1_dropShadow_126_1805"/>
<feBlend mode="normal" in="SourceGraphic" in2="effect1_dropShadow_126_1805" result="shape"/>
</filter>
<filter id="filter2_d_126_1805" x="0" y="0" width="20.127" height="20.1528" filterUnits="userSpaceOnUse" color-interpolation-filters="sRGB">
<feFlood flood-opacity="0" result="BackgroundImageFix"/>
<feColorMatrix in="SourceAlpha" type="matrix" values="0 0 0 0 0 0 0 0 0 0 0 0 0 0 0 0 0 0 127 0" result="hardAlpha"/>
<feOffset dy="4"/>
<feGaussianBlur stdDeviation="2"/>
<feComposite in2="hardAlpha" operator="out"/>
<feColorMatrix type="matrix" values="0 0 0 0 0 0 0 0 0 0 0 0 0 0 0 0 0 0 0.25 0"/>
<feBlend mode="normal" in2="BackgroundImageFix" result="effect1_dropShadow_126_1805"/>
<feBlend mode="normal" in="SourceGraphic" in2="effect1_dropShadow_126_1805" result="shape"/>
</filter>
</defs>
</svg>
