<svg width="13" height="13" viewBox="0 0 13 13" fill="none" xmlns="http://www.w3.org/2000/svg">
<path fill-rule="evenodd" clip-rule="evenodd" d="M5.71964 1.05411C3.10552 1.23711 1.04167 3.41573 1.04167 6.07639C1.04167 8.85699 3.29579 11.1111 6.07639 11.1111C8.30408 11.1111 10.1942 9.66402 10.8575 7.6588C10.347 7.86969 9.78758 7.98611 9.20139 7.98611C6.80432 7.98611 4.86111 6.0429 4.86111 3.64583C4.86111 2.67421 5.18064 1.77715 5.71964 1.05411ZM0 6.07639C0 2.72049 2.72049 0 6.07639 0C6.38862 0 6.69568 0.0235945 6.9958 0.0691799C7.20341 0.100714 7.37178 0.253843 7.42281 0.457543C7.47384 0.661242 7.39755 0.875661 7.22932 1.00135C6.42308 1.60371 5.90278 2.56395 5.90278 3.64583C5.90278 5.46761 7.37962 6.94444 9.20139 6.94444C9.98905 6.94444 10.711 6.66903 11.2782 6.20878C11.4411 6.07653 11.6676 6.05502 11.8525 6.15424C12.0375 6.25345 12.1448 6.45399 12.1248 6.66292C11.8294 9.74389 9.23452 12.1528 6.07639 12.1528C2.72049 12.1528 0 9.43229 0 6.07639Z" fill="#24272C"/>
</svg>
