<svg id="Layer_2" data-name="Layer 2" xmlns="http://www.w3.org/2000/svg" width="23.949" height="23.948" viewBox="0 0 23.949 23.948">
  <path id="Path_114" data-name="Path 114" d="M9.981,17H3.2A2.2,2.2,0,0,0,1,19.2v6.785a2.2,2.2,0,0,0,2.2,2.2H9.981a2.2,2.2,0,0,0,2.2-2.2V19.2A2.2,2.2,0,0,0,9.981,17Zm.6,8.981a.607.607,0,0,1-.6.6H3.2a.607.607,0,0,1-.6-.6V19.2a.607.607,0,0,1,.6-.6H9.981a.607.607,0,0,1,.6.6Z" transform="translate(-1 -4.227)" fill="#959595"/>
  <path id="Path_115" data-name="Path 115" d="M9.981,1H3.2A2.2,2.2,0,0,0,1,3.2V9.981a2.2,2.2,0,0,0,2.2,2.2H9.981a2.2,2.2,0,0,0,2.2-2.2V3.2A2.2,2.2,0,0,0,9.981,1Zm.6,8.981a.607.607,0,0,1-.6.6H3.2a.607.607,0,0,1-.6-.6V3.2a.607.607,0,0,1,.6-.6H9.981a.607.607,0,0,1,.6.6Z" transform="translate(-1 -1)" fill="#959595"/>
  <path id="Path_116" data-name="Path 116" d="M25.981,1H19.2A2.2,2.2,0,0,0,17,3.2V9.981a2.2,2.2,0,0,0,2.2,2.2h6.786a2.2,2.2,0,0,0,2.2-2.2V3.2A2.2,2.2,0,0,0,25.981,1Zm.6,8.981a.607.607,0,0,1-.6.6H19.2a.607.607,0,0,1-.6-.6V3.2a.607.607,0,0,1,.6-.6h6.786a.607.607,0,0,1,.6.6Z" transform="translate(-4.227 -1)" fill="#959595"/>
  <path id="Path_117" data-name="Path 117" d="M19.8,27.157h6.386a.8.8,0,1,0,0-1.6H19.8a.8.8,0,1,0,0,1.6Z" transform="translate(-4.631 -5.954)" fill="#959595"/>
  <path id="Path_118" data-name="Path 118" d="M19.8,22.037h6.386a.8.8,0,1,0,0-1.6H19.8a.8.8,0,1,0,0,1.6Z" transform="translate(-4.631 -4.921)" fill="#959595"/>
</svg>
