<svg id="Layer_1" xmlns="http://www.w3.org/2000/svg" width="20.568" height="23.568" viewBox="0 0 20.568 23.568">
  <g id="Group_226" data-name="Group 226" transform="translate(0 0)">
    <path id="Path_182" data-name="Path 182" d="M19.357,22.034a.857.857,0,0,0,.857-.857v-8.57a.857.857,0,0,0-1.714,0v8.57A.857.857,0,0,0,19.357,22.034Z" transform="translate(-6.073 -3.608)" fill="#1da1f1"/>
    <path id="Path_183" data-name="Path 183" d="M12.357,22.034a.857.857,0,0,0,.857-.857v-8.57a.857.857,0,0,0-1.714,0v8.57A.857.857,0,0,0,12.357,22.034Z" transform="translate(-5.072 -3.608)" fill="#1da1f1"/>
    <path id="Path_184" data-name="Path 184" d="M18.713,3.964a.857.857,0,1,0,0-1.714H11.857a.857.857,0,1,0,0,1.714Z" transform="translate(-5.001 -2.25)" fill="#1da1f1"/>
    <path id="Path_185" data-name="Path 185" d="M4.857,5.25a.857.857,0,1,0,0,1.714h.857V22.733a3.519,3.519,0,0,0,3.514,3.514H19.34a3.519,3.519,0,0,0,3.514-3.514V6.964h.857a.857.857,0,1,0,0-1.714H4.857ZM21.14,6.964V22.733a1.8,1.8,0,0,1-1.8,1.8H9.228a1.8,1.8,0,0,1-1.8-1.8V6.964Z" transform="translate(-4 -2.679)" fill="#1da1f1"/>
  </g>
</svg>
