<svg width="20" height="21" viewBox="0 0 20 21" fill="none" xmlns="http://www.w3.org/2000/svg">
<path fill-rule="evenodd" clip-rule="evenodd" d="M19.8701 3.79635C20.0722 4.09948 20.0384 4.51141 19.7691 4.77827L10.1034 14.3498C10.0043 14.448 9.88063 14.5182 9.7451 14.5533L5.71957 15.5945C5.58828 15.6285 5.45294 15.6278 5.32579 15.5957C5.1906 15.5616 5.06466 15.4922 4.96265 15.3911C4.76468 15.1951 4.68652 14.9098 4.75727 14.6416L5.80875 10.6551C5.83974 10.5377 5.89787 10.4217 5.9783 10.3307L15.6797 0.728732C15.7646 0.644641 15.8669 0.581697 15.9783 0.543347C16.0608 0.514911 16.1483 0.5 16.2373 0.5C16.4465 0.5 16.6471 0.58228 16.7949 0.728732L19.7691 3.67385C19.8075 3.71197 19.8412 3.75305 19.8701 3.79635ZM18.0962 4.22606L16.2373 2.38536L7.28068 11.2549L6.62352 13.7464L9.13945 13.0956L18.0962 4.22606Z" fill="#495058"/>
<path d="M17.9629 16.0255C18.2504 13.5914 18.3419 11.1404 18.2372 8.69556C18.2323 8.57852 18.2768 8.46459 18.3604 8.38174L19.3943 7.35785C19.5214 7.23196 19.7387 7.31188 19.7505 7.48951C19.9451 10.3943 19.8712 13.3122 19.5294 16.207C19.2806 18.3129 17.5727 19.9633 15.4571 20.1975C11.8121 20.6008 8.04421 20.6008 4.39922 20.1975C2.28359 19.9633 0.575637 18.3129 0.32691 16.207C-0.10897 12.5164 -0.10897 8.78813 0.32691 5.09764C0.575637 2.99167 2.28359 1.34127 4.39922 1.10711C7.16435 0.801077 10.0002 0.7272 12.7993 0.885482C12.9797 0.895686 13.062 1.11186 12.9342 1.23839L11.8906 2.2719C11.8079 2.35384 11.6944 2.39785 11.5774 2.39394C9.23637 2.31575 6.87943 2.40421 4.57441 2.65933C3.17583 2.81412 2.05549 3.90704 1.89345 5.27908C1.4718 8.84904 1.4718 12.4555 1.89345 16.0255C2.05549 17.3975 3.17583 18.4904 4.57441 18.6453C8.10299 19.0357 11.7533 19.0357 15.2819 18.6453C16.6805 18.4904 17.8008 17.3975 17.9629 16.0255Z" fill="#495058"/>
</svg>
