<svg width="56" height="56" viewBox="0 0 56 56" fill="none" xmlns="http://www.w3.org/2000/svg">
<rect x="4" y="4" width="48" height="48" rx="24" fill="#C8C8F4"/>
<path d="M24.5828 35.4801H22.5828C22.1661 35.4801 21.7495 35.2301 21.5828 34.8967C21.3328 34.5634 21.3328 34.2301 21.4995 33.8134C22.4995 31.4801 24.7495 29.8967 27.3328 29.8967C29.9162 29.8967 32.0828 27.7301 32.0828 25.1467C32.0828 22.5634 29.9162 20.48 27.2495 20.48C24.6661 20.48 22.4995 22.6467 22.4995 25.23C22.4995 26.7301 23.1661 28.0634 24.2495 28.8967C22.3328 29.6467 20.6661 31.2301 19.8328 33.2301C19.4995 34.0634 19.5828 35.0634 20.0828 35.8134C20.6661 36.6467 21.4995 37.1467 22.4995 37.1467H24.4995C24.9995 37.1467 25.3328 36.8134 25.3328 36.3134C25.3328 35.8134 25.0828 35.4801 24.5828 35.4801ZM24.1661 25.23C24.1661 23.5634 25.5828 22.1467 27.2495 22.1467C28.9162 22.1467 30.3328 23.5634 30.3328 25.23C30.3328 26.8967 28.9162 28.3134 27.2495 28.3134C25.5828 28.3134 24.1661 26.8967 24.1661 25.23Z" fill="#6365EF"/>
<path d="M35.6673 27.9801C34.834 27.1468 33.4173 27.1468 32.584 27.9801L28.1673 32.3968C27.1673 33.3968 26.584 34.8134 26.584 36.3134C26.584 36.8134 26.9173 37.1468 27.4173 37.1468C28.9173 37.1468 30.2507 36.5634 31.334 35.5634L35.7507 31.1468C36.1673 30.7301 36.4173 30.1468 36.4173 29.5634C36.4173 28.9801 36.084 28.3968 35.6673 27.9801ZM34.5007 29.9801L30.084 34.3968C29.584 34.8968 29.0007 35.2301 28.334 35.3968C28.5007 34.7301 28.834 34.1468 29.334 33.6468L33.7507 29.2301C33.834 29.1468 34.0007 29.0634 34.1673 29.0634C34.334 29.0634 34.4173 29.1468 34.5007 29.2301C34.584 29.3134 34.6673 29.4801 34.6673 29.5634C34.6673 29.6468 34.584 29.8134 34.5007 29.9801Z" fill="#6365EF"/>
<rect x="4" y="4" width="48" height="48" rx="24" stroke="#8283FF" stroke-width="8"/>
</svg>
