<svg xmlns="http://www.w3.org/2000/svg" width="23.511" height="23.568" viewBox="0 0 23.511 23.568">
  <g id="editing_1_" data-name="editing (1)" transform="translate(0)">
    <path id="Path_186" data-name="Path 186" d="M21.169,6.6a2.359,2.359,0,0,0-.228-3.368L17.808.569A2.344,2.344,0,0,0,14.528.8L1.4,15.414A5.5,5.5,0,0,0,0,19.1v3.685a.8.8,0,0,0,.9.737l3.811-.568A5.521,5.521,0,0,0,8,21.178ZM6.855,20.183A3.936,3.936,0,0,1,4.5,21.451l-2.948.435V19.107a3.921,3.921,0,0,1,1-2.646L12.877,4.977l2.469,2.211A.789.789,0,0,0,16.4,6.016L13.931,3.8l1.762-1.961a.781.781,0,0,1,1.1-.074L19.9,4.424a.789.789,0,0,1,.074,1.12Z" transform="translate(0.001 -0.006)" fill="#1da1f1"/>
    <path id="Path_187" data-name="Path 187" d="M26.191,29.85H13.616a.789.789,0,0,0,0,1.57H26.191a.789.789,0,0,0,0-1.57Z" transform="translate(-3.392 -7.852)" fill="#1da1f1"/>
  </g>
</svg>
