<svg width="14" height="14" viewBox="0 0 14 14" fill="none" xmlns="http://www.w3.org/2000/svg">
<path d="M7 0C7.26972 0 7.48837 0.218652 7.48837 0.488372V1.13953C7.48837 1.40926 7.26972 1.62791 7 1.62791C6.73028 1.62791 6.51163 1.40926 6.51163 1.13953V0.488372C6.51163 0.218652 6.73028 0 7 0Z" fill="#E9EAF0"/>
<path fill-rule="evenodd" clip-rule="evenodd" d="M3.25581 7C3.25581 4.93214 4.93214 3.25581 7 3.25581C9.06786 3.25581 10.7442 4.93214 10.7442 7C10.7442 9.06786 9.06786 10.7442 7 10.7442C4.93214 10.7442 3.25581 9.06786 3.25581 7ZM7 4.23256C5.47158 4.23256 4.23256 5.47158 4.23256 7C4.23256 8.52842 5.47158 9.76744 7 9.76744C8.52842 9.76744 9.76744 8.52842 9.76744 7C9.76744 5.47158 8.52842 4.23256 7 4.23256Z" fill="#E9EAF0"/>
<path d="M2.74092 2.05027C2.5502 1.85955 2.24098 1.85955 2.05026 2.05027C1.85954 2.24099 1.85954 2.55021 2.05026 2.74093L2.5107 3.20137C2.70142 3.39209 3.01064 3.39209 3.20137 3.20137C3.39209 3.01065 3.39209 2.70143 3.20137 2.51071L2.74092 2.05027Z" fill="#E9EAF0"/>
<path d="M14 7C14 7.26972 13.7813 7.48837 13.5116 7.48837H12.8605C12.5907 7.48837 12.3721 7.26972 12.3721 7C12.3721 6.73028 12.5907 6.51163 12.8605 6.51163H13.5116C13.7813 6.51163 14 6.73028 14 7Z" fill="#E9EAF0"/>
<path d="M11.9497 2.74092C12.1405 2.5502 12.1405 2.24098 11.9497 2.05026C11.759 1.85954 11.4498 1.85954 11.2591 2.05026L10.7986 2.5107C10.6079 2.70142 10.6079 3.01064 10.7986 3.20137C10.9893 3.39209 11.2986 3.39209 11.4893 3.20137L11.9497 2.74092Z" fill="#E9EAF0"/>
<path d="M7 12.3721C7.26972 12.3721 7.48837 12.5907 7.48837 12.8605V13.5116C7.48837 13.7813 7.26972 14 7 14C6.73028 14 6.51163 13.7813 6.51163 13.5116V12.8605C6.51163 12.5907 6.73028 12.3721 7 12.3721Z" fill="#E9EAF0"/>
<path d="M11.4893 10.7986C11.2986 10.6079 10.9894 10.6079 10.7987 10.7986C10.608 10.9894 10.608 11.2986 10.7987 11.4893L11.2591 11.9497C11.4498 12.1405 11.7591 12.1405 11.9498 11.9497C12.1405 11.759 12.1405 11.4498 11.9498 11.2591L11.4893 10.7986Z" fill="#E9EAF0"/>
<path d="M1.62791 7C1.62791 7.26972 1.40926 7.48837 1.13953 7.48837H0.488372C0.218652 7.48837 0 7.26972 0 7C0 6.73028 0.218652 6.51163 0.488372 6.51163H1.13953C1.40926 6.51163 1.62791 6.73028 1.62791 7Z" fill="#E9EAF0"/>
<path d="M3.20132 11.4893C3.39204 11.2986 3.39204 10.9894 3.20132 10.7986C3.0106 10.6079 2.70138 10.6079 2.51066 10.7986L2.05022 11.2591C1.8595 11.4498 1.8595 11.759 2.05022 11.9497C2.24094 12.1405 2.55016 12.1405 2.74088 11.9497L3.20132 11.4893Z" fill="#E9EAF0"/>
</svg>
