<svg width="24" height="24" viewBox="0 0 24 24" fill="none" xmlns="http://www.w3.org/2000/svg">
<mask id="mask0_1616_14018" style="mask-type:alpha" maskUnits="userSpaceOnUse" x="0" y="0" width="24" height="24">
<rect width="24" height="24" fill="#D9D9D9"/>
</mask>
<g mask="url(#mask0_1616_14018)">
<path d="M14 11C13.7167 11 13.4793 11.0957 13.288 11.287C13.096 11.479 13 11.7167 13 12V15.15L12.1 14.275C11.9 14.0917 11.6667 14 11.4 14C11.1333 14 10.9 14.1 10.7 14.3C10.5167 14.4833 10.425 14.7167 10.425 15C10.425 15.2833 10.5167 15.5167 10.7 15.7L13.3 18.3C13.4833 18.4833 13.7167 18.575 14 18.575C14.2833 18.575 14.5167 18.4833 14.7 18.3L17.325 15.675C17.5083 15.4917 17.6 15.2667 17.6 15C17.6 14.7333 17.5 14.5 17.3 14.3C17.1167 14.1167 16.8833 14.0207 16.6 14.012C16.3167 14.004 16.0833 14.1 15.9 14.3L15 15.15V11.975C15 11.6917 14.9043 11.4583 14.713 11.275C14.521 11.0917 14.2833 11 14 11ZM10 13C10.2833 13 10.521 12.904 10.713 12.712C10.9043 12.5207 11 12.2833 11 12V8.85L11.9 9.725C12.1 9.90833 12.3333 10 12.6 10C12.8667 10 13.1 9.9 13.3 9.7C13.4833 9.51667 13.575 9.28333 13.575 9C13.575 8.71667 13.4833 8.48333 13.3 8.3L10.7 5.7C10.5167 5.51667 10.2833 5.425 10 5.425C9.71667 5.425 9.48333 5.51667 9.3 5.7L6.675 8.325C6.49167 8.50833 6.4 8.73333 6.4 9C6.4 9.26667 6.5 9.5 6.7 9.7C6.88333 9.88333 7.11667 9.97933 7.4 9.988C7.68333 9.996 7.91667 9.9 8.1 9.7L9 8.85V12.025C9 12.3083 9.096 12.5417 9.288 12.725C9.47933 12.9083 9.71667 13 10 13ZM12 22C10.6167 22 9.31667 21.7373 8.1 21.212C6.88333 20.6873 5.825 19.975 4.925 19.075C4.025 18.175 3.31267 17.1167 2.788 15.9C2.26267 14.6833 2 13.3833 2 12C2 10.6167 2.26267 9.31667 2.788 8.1C3.31267 6.88333 4.025 5.825 4.925 4.925C5.825 4.025 6.88333 3.31233 8.1 2.787C9.31667 2.26233 10.6167 2 12 2C13.3833 2 14.6833 2.26233 15.9 2.787C17.1167 3.31233 18.175 4.025 19.075 4.925C19.975 5.825 20.6873 6.88333 21.212 8.1C21.7373 9.31667 22 10.6167 22 12C22 13.3833 21.7373 14.6833 21.212 15.9C20.6873 17.1167 19.975 18.175 19.075 19.075C18.175 19.975 17.1167 20.6873 15.9 21.212C14.6833 21.7373 13.3833 22 12 22Z" fill="#9092FD" fill-opacity="0.83"/>
</g>
</svg>
